<svg xmlns="http://www.w3.org/2000/svg" viewBox="0 0 500 500"><g id="freepik--background-complete--inject-31"><rect y="382.4" width="500" height="0.25" style="fill:#ebebeb"></rect><rect x="416.78" y="398.49" width="33.12" height="0.25" style="fill:#ebebeb"></rect><rect x="322.53" y="401.21" width="8.69" height="0.25" style="fill:#ebebeb"></rect><rect x="396.59" y="389.21" width="19.19" height="0.25" style="fill:#ebebeb"></rect><rect x="52.46" y="390.89" width="43.19" height="0.25" style="fill:#ebebeb"></rect><rect x="104.56" y="390.89" width="6.33" height="0.25" style="fill:#ebebeb"></rect><rect x="131.47" y="395.11" width="93.68" height="0.25" style="fill:#ebebeb"></rect><path d="M237,337.8H43.91a5.71,5.71,0,0,1-5.7-5.71V60.66A5.71,5.71,0,0,1,43.91,55H237a5.71,5.71,0,0,1,5.71,5.71V332.09A5.71,5.71,0,0,1,237,337.8ZM43.91,55.2a5.46,5.46,0,0,0-5.45,5.46V332.09a5.46,5.46,0,0,0,5.45,5.46H237a5.47,5.47,0,0,0,5.46-5.46V60.66A5.47,5.47,0,0,0,237,55.2Z" style="fill:#ebebeb"></path><path d="M453.31,337.8H260.21a5.72,5.72,0,0,1-5.71-5.71V60.66A5.72,5.72,0,0,1,260.21,55h193.1A5.71,5.71,0,0,1,459,60.66V332.09A5.71,5.71,0,0,1,453.31,337.8ZM260.21,55.2a5.47,5.47,0,0,0-5.46,5.46V332.09a5.47,5.47,0,0,0,5.46,5.46h193.1a5.47,5.47,0,0,0,5.46-5.46V60.66a5.47,5.47,0,0,0-5.46-5.46Z" style="fill:#ebebeb"></path><path d="M154.22,240.75H80.94a20.67,20.67,0,0,0-20.67,20.68v82.2H174.89v-82.2A20.67,20.67,0,0,0,154.22,240.75Z" style="fill:#e6e6e6"></path><path d="M206,301.68H187.18A12.29,12.29,0,0,0,174.89,314v68H218.3V314A12.28,12.28,0,0,0,206,301.68Z" style="fill:#e0e0e0"></path><path d="M206,301.68h-.4A12.29,12.29,0,0,0,193.33,314v68h25V314A12.28,12.28,0,0,0,206,301.68Z" style="fill:#ebebeb"></path><rect x="75.6" y="350.72" width="112.48" height="31.23" style="fill:#e6e6e6"></rect><rect x="68.46" y="322.16" width="132.32" height="32.76" rx="12.49" style="fill:#f5f5f5"></rect><rect x="68.68" y="322.16" width="42.26" height="32.76" rx="12.49" style="fill:#e0e0e0;isolation:isolate"></rect><path d="M79.31,301.68H60.47A12.28,12.28,0,0,0,48.19,314v68H91.6V314A12.29,12.29,0,0,0,79.31,301.68Z" style="fill:#e0e0e0"></path><path d="M79.31,301.68h-.4A12.28,12.28,0,0,0,66.63,314v68h25V314A12.29,12.29,0,0,0,79.31,301.68Z" style="fill:#f0f0f0"></path><rect x="56.81" y="86.57" width="112.62" height="124.62" style="fill:#e9e9e9"></rect><rect x="61.76" y="91.51" width="103" height="115" style="fill:#f4f4f4"></rect><polygon points="90.87 91.51 61.76 200.53 61.76 141.51 75.08 91.51 90.87 91.51" style="fill:#fff"></polygon><polygon points="103.88 91.51 73.18 206.51 67.39 206.51 98.09 91.51 103.88 91.51" style="fill:#fff"></polygon><polygon points="164.76 122.86 164.76 181.9 158.24 206.51 142.45 206.51 164.76 122.86" style="fill:#fff"></polygon><rect x="111.11" y="86.57" width="4" height="124.62" style="fill:#e9e9e9"></rect><rect x="58.76" y="111.86" width="108.5" height="4" style="fill:#e9e9e9"></rect><rect x="259.59" y="158.72" width="176.29" height="223.23" style="fill:#f0f0f0"></rect><rect x="265.82" y="166.85" width="163.83" height="47.74" style="fill:#e0e0e0"></rect><rect x="265.82" y="174.58" width="9.31" height="40.01" style="fill:#ebebeb"></rect><rect x="310.82" y="174.58" width="9.31" height="40.01" style="fill:#ebebeb"></rect><rect x="365.38" y="174.08" width="9.31" height="40.01" transform="matrix(0.99, -0.17, 0.17, 0.99, -27.59, 65.67)" style="fill:#ebebeb"></rect><rect x="277.36" y="179.85" width="9.31" height="34.74" style="fill:#ebebeb"></rect><rect x="298.75" y="179.85" width="9.31" height="34.74" style="fill:#ebebeb"></rect><rect x="352.74" y="179.85" width="9.31" height="34.74" style="fill:#ebebeb"></rect><rect x="326.93" y="179.26" width="9.31" height="34.74" transform="translate(-34.75 76.6) rotate(-12.53)" style="fill:#ebebeb"></rect><rect x="290.06" y="172.6" width="4.65" height="41.99" style="fill:#ebebeb"></rect><rect x="345.41" y="172.6" width="4.65" height="41.99" style="fill:#ebebeb"></rect><rect x="265.82" y="222.15" width="163.83" height="47.74" transform="translate(695.47 492.03) rotate(180)" style="fill:#e0e0e0"></rect><rect x="420.34" y="229.88" width="9.31" height="40.01" transform="translate(849.99 499.76) rotate(180)" style="fill:#ebebeb"></rect><rect x="375.34" y="229.88" width="9.31" height="40.01" transform="translate(759.99 499.76) rotate(180)" style="fill:#ebebeb"></rect><rect x="320.79" y="229.38" width="9.31" height="40.01" transform="translate(603.81 550.41) rotate(-170.22)" style="fill:#ebebeb"></rect><rect x="408.81" y="235.15" width="9.31" height="34.74" transform="translate(826.93 505.03) rotate(180)" style="fill:#ebebeb"></rect><rect x="387.42" y="235.15" width="9.31" height="34.74" transform="translate(784.15 505.03) rotate(180)" style="fill:#ebebeb"></rect><rect x="333.43" y="235.15" width="9.31" height="34.74" transform="translate(676.16 505.03) rotate(180)" style="fill:#ebebeb"></rect><rect x="359.24" y="234.55" width="9.31" height="34.74" transform="translate(664.49 576.77) rotate(-167.47)" style="fill:#ebebeb"></rect><rect x="400.77" y="227.89" width="4.65" height="41.99" transform="translate(806.18 497.77) rotate(180)" style="fill:#ebebeb"></rect><rect x="345.41" y="227.89" width="4.65" height="41.99" transform="translate(695.47 497.77) rotate(180)" style="fill:#ebebeb"></rect><rect x="265.82" y="229.88" width="9.31" height="40.01" style="fill:#ebebeb"></rect><rect x="277.36" y="235.15" width="9.31" height="34.74" style="fill:#ebebeb"></rect><rect x="298.75" y="235.15" width="9.31" height="34.74" style="fill:#ebebeb"></rect><rect x="290.06" y="227.89" width="4.65" height="41.99" style="fill:#ebebeb"></rect><rect x="265.82" y="277.44" width="163.83" height="47.74" style="fill:#e0e0e0"></rect><rect x="359.85" y="285.17" width="9.31" height="40.01" style="fill:#ebebeb"></rect><rect x="414.41" y="284.67" width="9.31" height="40.01" transform="translate(-45.66 75.6) rotate(-9.78)" style="fill:#ebebeb"></rect><rect x="326.39" y="290.44" width="9.31" height="34.74" style="fill:#ebebeb"></rect><rect x="347.78" y="290.44" width="9.31" height="34.74" style="fill:#ebebeb"></rect><rect x="401.77" y="290.44" width="9.31" height="34.74" style="fill:#ebebeb"></rect><rect x="375.96" y="289.85" width="9.31" height="34.74" transform="translate(-57.58 89.87) rotate(-12.53)" style="fill:#ebebeb"></rect><rect x="339.09" y="283.18" width="4.65" height="41.99" style="fill:#ebebeb"></rect><rect x="394.44" y="283.18" width="4.65" height="41.99" style="fill:#ebebeb"></rect><rect x="307.34" y="284.67" width="9.31" height="40.01" transform="translate(-47.21 57.42) rotate(-9.78)" style="fill:#ebebeb"></rect><rect x="294.7" y="290.44" width="9.31" height="34.74" style="fill:#ebebeb"></rect><rect x="268.89" y="289.85" width="9.31" height="34.74" transform="translate(-60.12 66.65) rotate(-12.53)" style="fill:#ebebeb"></rect><rect x="287.37" y="283.18" width="4.65" height="41.99" style="fill:#ebebeb"></rect></g><g id="freepik--Shadow--inject-31"><ellipse id="freepik--path--inject-31" cx="250" cy="416.24" rx="193.89" ry="11.32" style="fill:#f5f5f5"></ellipse></g><g id="freepik--Plant--inject-31"><path d="M81.43,382.66c-.16-1-3.66-25.17,3.35-33.51a7.61,7.61,0,0,1,5.83-2.87c14.15-.33,16.08,11,16.1,11.16l-1.67.25c-.06-.41-1.74-10-14.39-9.72a5.91,5.91,0,0,0-4.57,2.27c-6.53,7.76-3,31.93-3,32.17Z" style="fill:#407BFF"></path><path d="M80.57,381.56l-1.69-.05c0-.23.56-22.25-10.29-26.81C58,350.25,53.17,359.41,53,359.8L51.46,359c0-.11,5.67-11,17.78-5.89C81.16,358.15,80.6,380.6,80.57,381.56Z" style="fill:#407BFF"></path><path d="M80.62,383.29c0-.35-.1-35.19-6.9-45.38-6.52-9.78-17-5.18-17.48-5l-.7-1.53c.12-.06,12.26-5.42,19.59,5.57,7.07,10.61,7.18,44.86,7.18,46.32Z" style="fill:#407BFF"></path><path d="M92.63,347.12s-6.18,2.28-4.34,7.66S109.67,369,109.67,369s8.18-7.51.66-19.7S92.8,343.27,92.63,347.12Z" style="fill:#407BFF"></path><path d="M73.42,336.07s4.38-.47,4-3.14-17.05-9.55-26.91,1.57c0,0,6.31,10.84,15.43,11S73.42,336.07,73.42,336.07Z" style="fill:#407BFF"></path><path d="M68.91,353.93s3-2.45-.23-3.64-19.31-.86-19.47,15c0,0,18.67,3.1,21-2.95S68.91,353.93,68.91,353.93Z" style="fill:#407BFF"></path><path d="M92.63,347.12s-6.18,2.28-4.34,7.66S109.67,369,109.67,369s8.18-7.51.66-19.7S92.8,343.27,92.63,347.12Z" style="opacity:0.2;isolation:isolate"></path><path d="M73.42,336.07s4.38-.47,4-3.14-17.05-9.55-26.91,1.57c0,0,6.31,10.84,15.43,11S73.42,336.07,73.42,336.07Z" style="opacity:0.2;isolation:isolate"></path><path d="M68.91,353.93s3-2.45-.23-3.64-19.31-.86-19.47,15c0,0,18.67,3.1,21-2.95S68.91,353.93,68.91,353.93Z" style="opacity:0.2;isolation:isolate"></path><polygon points="95.95 415.01 66.97 415.01 63.85 383.29 99.08 383.29 95.95 415.01" style="fill:#407BFF"></polygon><polygon points="95.95 415.01 66.97 415.01 63.85 383.29 99.08 383.29 95.95 415.01" style="fill:#fff;opacity:0.5;isolation:isolate"></polygon><rect x="62.3" y="379.79" width="38.32" height="7" style="fill:#407BFF"></rect><rect x="62.3" y="379.79" width="38.32" height="7" style="fill:#fff;opacity:0.2;isolation:isolate"></rect></g><g id="freepik--pop-up-4--inject-31"><rect x="326.58" y="213.33" width="113.22" height="106.78" rx="4.5" style="fill:#407BFF"></rect><path d="M357.23,301.4h2.23a2.46,2.46,0,1,1,0,4.9h-2.23Zm2.17,4a1.52,1.52,0,1,0,0-3h-1v3Z" style="fill:#fff"></path><path d="M362.7,303.85a2.69,2.69,0,1,1,2.68,2.53A2.54,2.54,0,0,1,362.7,303.85Zm4.22,0a1.54,1.54,0,1,0-1.54,1.57A1.5,1.5,0,0,0,366.92,303.85Z" style="fill:#fff"></path><path d="M373.41,301.4v4.9h-.93l-2.44-3v3h-1.12v-4.9h.94l2.43,3v-3Z" style="fill:#fff"></path><path d="M375.59,301.72a1.78,1.78,0,0,1-.18.7l-.41,1h-.69l.3-1.11a.63.63,0,0,1-.37-.6.68.68,0,0,1,1.35,0Z" style="fill:#fff"></path><path d="M377.59,302.32H376v-.92h4.28v.92h-1.57v4h-1.14Z" style="fill:#fff"></path><path d="M382.5,305.82l.38-.86a2.91,2.91,0,0,0,1.62.51c.67,0,.95-.22.95-.52,0-.92-2.85-.29-2.85-2.11,0-.84.67-1.53,2.06-1.53a3.23,3.23,0,0,1,1.7.44l-.35.86a2.73,2.73,0,0,0-1.35-.39c-.68,0-.94.25-.94.56,0,.91,2.85.28,2.85,2.08,0,.82-.67,1.52-2.08,1.52A3.53,3.53,0,0,1,382.5,305.82Z" style="fill:#fff"></path><path d="M388.29,302.32h-1.56v-.92H391v.92h-1.57v4h-1.14Z" style="fill:#fff"></path><path d="M394.73,306.3l-1-1.37h-1v1.37h-1.13v-4.9h2.12c1.31,0,2.13.68,2.13,1.77a1.59,1.59,0,0,1-1,1.55l1.1,1.58Zm-1.07-4h-.92V304h.92c.7,0,1-.32,1-.86S394.36,302.32,393.66,302.32Z" style="fill:#fff"></path><path d="M400.55,305.39v.91h-3.8v-4.9h3.71v.91h-2.58v1.06h2.27v.88h-2.27v1.14Z" style="fill:#fff"></path><path d="M401.06,305.82l.39-.86a2.88,2.88,0,0,0,1.61.51c.68,0,.95-.22.95-.52,0-.92-2.85-.29-2.85-2.11,0-.84.67-1.53,2.07-1.53a3.29,3.29,0,0,1,1.7.44l-.35.86a2.8,2.8,0,0,0-1.36-.39c-.67,0-.93.25-.93.56,0,.91,2.85.28,2.85,2.08,0,.82-.68,1.52-2.08,1.52A3.56,3.56,0,0,1,401.06,305.82Z" style="fill:#fff"></path><path d="M405.53,305.82l.38-.86a2.91,2.91,0,0,0,1.62.51c.67,0,1-.22,1-.52,0-.92-2.85-.29-2.85-2.11,0-.84.67-1.53,2.06-1.53a3.23,3.23,0,0,1,1.7.44l-.35.86a2.73,2.73,0,0,0-1.35-.39c-.68,0-.94.25-.94.56,0,.91,2.85.28,2.85,2.08,0,.82-.68,1.52-2.08,1.52A3.53,3.53,0,0,1,405.53,305.82Z" style="fill:#fff"></path><path d="M355.16,313.65h-2.28l-.43,1.05h-1.16l2.18-4.9h1.12l2.19,4.9h-1.19Zm-.36-.86-.78-1.88-.77,1.88Z" style="fill:#fff"></path><path d="M361.79,309.8v4.9h-.93l-2.45-3v3h-1.12v-4.9h.94l2.44,3v-3Z" style="fill:#fff"></path><path d="M363,309.8h2.23a2.46,2.46,0,1,1,0,4.9H363Zm2.17,4a1.52,1.52,0,1,0,0-3h-1v3Z" style="fill:#fff"></path><path d="M372.5,312.77l-.66.69v1.24h-1.13v-4.9h1.13v2.29L374,309.8h1.26l-2,2.18,2.15,2.72h-1.32Z" style="fill:#fff"></path><path d="M379.69,313.79v.91h-3.8v-4.9h3.71v.91H377v1.06h2.27v.88H377v1.14Z" style="fill:#fff"></path><path d="M384.38,313.79v.91h-3.79v-4.9h3.7v.91h-2.57v1.06H384v.88h-2.27v1.14Z" style="fill:#fff"></path><path d="M389.54,311.58c0,1.09-.82,1.77-2.13,1.77h-1v1.35h-1.14v-4.9h2.13C388.72,309.8,389.54,310.48,389.54,311.58Zm-1.15,0c0-.54-.35-.86-1.05-.86h-.92v1.7h.92C388,312.42,388.39,312.11,388.39,311.58Z" style="fill:#fff"></path><path d="M392.08,312.25a2.7,2.7,0,0,1,4.68-1.67l-.73.67a1.56,1.56,0,0,0-1.23-.57,1.57,1.57,0,1,0,0,3.14,1.55,1.55,0,0,0,1.23-.59l.73.68a2.7,2.7,0,0,1-4.68-1.66Z" style="fill:#fff"></path><path d="M400.65,313.65h-2.28l-.43,1.05h-1.16l2.18-4.9h1.12l2.2,4.9h-1.19Zm-.36-.86-.77-1.88-.78,1.88Z" style="fill:#fff"></path><path d="M402.78,309.8h1.14v4h2.46v.93h-3.6Z" style="fill:#fff"></path><path d="M411.47,314.7v-2.94L410,314.18h-.51l-1.43-2.36v2.88H407v-4.9H408l1.84,3,1.8-3h.93l0,4.9Z" style="fill:#fff"></path><path d="M435.93,217.87v76.75a1.28,1.28,0,0,1-1.28,1.29H331.74a1.29,1.29,0,0,1-1.29-1.29V217.87a1.28,1.28,0,0,1,1.29-1.28H434.65A1.28,1.28,0,0,1,435.93,217.87Z" style="fill:#fff"></path><path d="M380.84,221.24s-5.59-3.26-13.34,3.47-8.23,31.81-4.11,48.66,33.27,4,33.27,4S400.54,224.89,380.84,221.24Z" style="fill:#263238"></path><path d="M403,287.67c0,2.51,0,5.25-.14,8.24H369.21c-.32-2.13-.75-4.4-1.36-7-.12-.53-.25-1.07-.39-1.63-.75-3-1.68-6.34-2.89-10.2l-.61-1.95h0v0c-.18-.55-.36-1.12-.54-1.69a.19.19,0,0,1,0-.07c-.31-.95-.63-1.92-1-2.93-.59-1.8-1.24-3.73-1.95-5.75l1.24-.39a92.6,92.6,0,0,1,11.74-2.75c.8-.14,1.6-.28,2.41-.39h0c3.18-.49,6.39-.82,9.6-1l2-.09c3.27,0,6.79.16,9.36.33,2.21.15,3.71.3,3.71.3s1,.24,1.62,6.69c.2,2.13.44,5,.62,8.67,0,.28,0,.57,0,.86,0,.48,0,.75,0,.75C403,280.51,403,283.81,403,287.67Z" style="fill:#407BFF"></path><path d="M403,287.67c0,2.51,0,5.25-.14,8.24H369.21c-.32-2.13-.75-4.4-1.36-7-.12-.53-.25-1.07-.39-1.63-.75-3-1.68-6.34-2.89-10.2l-.61-1.95h0v0c-.18-.55-.36-1.12-.54-1.69a.19.19,0,0,1,0-.07c-.31-.95-.63-1.92-1-2.93-.59-1.8-1.24-3.73-1.95-5.75l1.24-.39a92.6,92.6,0,0,1,11.74-2.75c.8-.14,1.6-.28,2.41-.39h0c3.18-.49,6.39-.82,9.6-1l2-.09c3.27,0,6.79.16,9.36.33,2.21.15,3.71.3,3.71.3s1,.24,1.62,6.69c.2,2.13.44,5,.62,8.67,0,.28,0,.57,0,.86,0,.48,0,.75,0,.75C403,280.51,403,283.81,403,287.67Z" style="fill:#fff;opacity:0.1;isolation:isolate"></path><path d="M387.13,261.42a5.66,5.66,0,0,0-1-.41c-.72-.57-1.59-1.94-1.55-5.28a27.06,27.06,0,0,1,.36-3.9l-9.27-1.73s3.16,6.24.52,10.87c-.9.41-1.45,1-1.35,1.73.7,5.36,11.22,6.89,11.22,6.89S392.72,264.49,387.13,261.42Z" style="fill:#ebb376"></path><path d="M385,251.83a27.06,27.06,0,0,0-.36,3.9c-6.26,0-8.91-5.63-8.91-5.63Z" style="opacity:0.2;isolation:isolate"></path><path d="M380.84,221.24s10.88-1.38,12.88,7.37A13.49,13.49,0,0,1,389,242.24Z" style="fill:#263238"></path><path d="M379.86,225.9c8.06-.44,10.89,3.74,11.93,12,1.31,10.34-.59,17.84-10.79,16.17C367.15,251.82,366.47,226.64,379.86,225.9Z" style="fill:#ebb376"></path><path d="M386.56,237.74a16.88,16.88,0,0,0,2.53,3.22,2.23,2.23,0,0,1-2.08,1Z" style="fill:#d58745"></path><path d="M381.2,231.79a4.21,4.21,0,0,0-3.43,1.41" style="fill:none;stroke:#263238;stroke-linecap:round;stroke-linejoin:round;stroke-width:0.686238px"></path><path d="M387,231.13a3.79,3.79,0,0,1,3.25.49" style="fill:none;stroke:#263238;stroke-linecap:round;stroke-linejoin:round;stroke-width:0.686238px"></path><path d="M371.79,240s3.41-6.83,2.56-11.91c0,0,15.61-7.4,17.29,8.77,0,0,.77-14.48-13.1-14s-12.71,20.7-5.22,26.35C373.32,249.14,369.69,244.24,371.79,240Z" style="fill:#263238"></path><path d="M373.2,241.6a3.53,3.53,0,0,0-4-3c-2.49.41-3.4,5.6,2.89,6.49C373,245.2,373.46,244.3,373.2,241.6Z" style="fill:#ebb376"></path><path d="M385.86,224.43a8.6,8.6,0,0,1-5.07,10.06,10.66,10.66,0,0,0,4.19-7.68s-4.19,9.61-12.89,8S371.42,216.33,385.86,224.43Z" style="fill:#263238"></path><path d="M387.47,244.89s-4.35-.06-5.56-2.65" style="fill:none;stroke:#263238;stroke-linecap:round;stroke-linejoin:round;stroke-width:0.5px"></path><path d="M390.29,236.58s-.39,2.27-2.47.34" style="fill:none;stroke:#263238;stroke-linecap:round;stroke-linejoin:round;stroke-width:0.5px"></path><path d="M383.77,237.14s-.61,2.32-2.93.56" style="fill:none;stroke:#263238;stroke-linecap:round;stroke-linejoin:round;stroke-width:0.5px"></path><path d="M422.79,295.91H401.37c-5.16-1.8-9.21-3.58-9.21-3.58L390.52,290l-1.85-2.66s.37-3.72.93-7.44c.27-1.79.59-3.59.92-5s.74-2.44,1.12-2.44c.82,0,3.16,2.28,5.05,4.5,1.57,1.84,2.84,3.65,2.65,4.07-.41.92,0,5.64,0,5.64l3.69,1,7.24,1.92s-3.07-7.65-7.41-11.91c0,0,0-.27,0-.75,0-.29,0-.58,0-.86-.09-1.67-.28-4.44-.69-7.35a73.72,73.72,0,0,0-1.55-8C406.86,261.88,423.18,286.87,422.79,295.91Z" style="fill:#ebb376"></path><path d="M422.79,295.91H401.37c-5.16-1.8-9.21-3.58-9.21-3.58L390.52,290l-1.85-2.66s.37-3.72.93-7.44c.27-1.79.59-3.59.92-5s.74-2.44,1.12-2.44c.82,0,3.16,2.28,5.05,4.5,1.57,1.84,2.84,3.65,2.65,4.07-.41.92,0,5.64,0,5.64l3.69,1,7.24,1.92s-3.07-7.65-7.41-11.91c0,0,0-.27,0-.75,0-.29,0-.58,0-.86-.09-1.67-.28-4.44-.69-7.35a73.72,73.72,0,0,0-1.55-8C406.86,261.88,423.18,286.87,422.79,295.91Z" style="opacity:0.1;isolation:isolate"></path><path d="M390.52,290c-.65,1.42-1.15,2.35-1.15,2.35s-6.72,1.85-14.7,3.58h-26c-.78-7.38,5.5-29.08,11.82-31.22A10.42,10.42,0,0,1,362,266a11.74,11.74,0,0,1,2.42,3.61c1.05,2.53.55,5.79.3,7-.06.32-.11.5-.11.5s-6,11.45-4.1,12.48c.66.36,3.7,0,7.38-.65,6.86-1.19,15.92-3.3,15.92-3.3s.39-2.06.91-4.51a65.59,65.59,0,0,1,1.88-7.6c.7-1.59,1-.63,4,1.39.48.32,1,.66,1.64,1a3.19,3.19,0,0,1,1.44,2.61C394,281.84,391.9,287,390.52,290Z" style="fill:#ebb376"></path></g><g id="freepik--pop-up-3--inject-31"><rect x="203.27" y="213.33" width="113.22" height="106.78" rx="4.5" style="fill:#407BFF"></rect><path d="M231.06,309.82l.39-.86a2.88,2.88,0,0,0,1.61.51c.68,0,.95-.22.95-.52,0-.92-2.85-.29-2.85-2.11,0-.84.67-1.53,2.07-1.53a3.29,3.29,0,0,1,1.7.44l-.35.86a2.8,2.8,0,0,0-1.36-.39c-.67,0-.93.25-.93.56,0,.91,2.85.28,2.85,2.08,0,.82-.68,1.52-2.08,1.52A3.56,3.56,0,0,1,231.06,309.82Z" style="fill:#fff"></path><path d="M235.91,305.4h1.14v4h2.45v.93h-3.59Z" style="fill:#fff"></path><path d="M243.94,309.39v.91h-3.8v-4.9h3.7v.91h-2.57v1.06h2.27v.88h-2.27v1.14Z" style="fill:#fff"></path><path d="M248.63,309.39v.91h-3.79v-4.9h3.7v.91H246v1.06h2.28v.88H246v1.14Z" style="fill:#fff"></path><path d="M253.79,307.17c0,1.1-.82,1.78-2.13,1.78h-1v1.35h-1.14v-4.9h2.13C253,305.4,253.79,306.08,253.79,307.17Zm-1.15,0c0-.53-.35-.85-1-.85h-.92V308h.92C252.29,308,252.64,307.71,252.64,307.17Z" style="fill:#fff"></path><path d="M260.43,309.39v.91h-3.79v-4.9h3.7v.91h-2.57v1.06H260v.88h-2.27v1.14Z" style="fill:#fff"></path><path d="M265.83,305.4v4.9h-.93l-2.44-3v3h-1.12v-4.9h.93l2.44,3v-3Z" style="fill:#fff"></path><path d="M266.68,307.85a2.69,2.69,0,1,1,2.69,2.53A2.54,2.54,0,0,1,266.68,307.85Zm4.22,0a1.54,1.54,0,1,0-1.53,1.57A1.5,1.5,0,0,0,270.9,307.85Z" style="fill:#fff"></path><path d="M272.86,308.14V305.4H274v2.7c0,.93.41,1.32,1.1,1.32s1.09-.39,1.09-1.32v-2.7h1.12v2.74a2.22,2.22,0,1,1-4.44,0Z" style="fill:#fff"></path><path d="M281.73,307.77h1v2a3.33,3.33,0,0,1-2,.62,2.54,2.54,0,1,1,0-5.07,2.65,2.65,0,0,1,2.06.85l-.73.67a1.65,1.65,0,0,0-1.27-.55,1.57,1.57,0,1,0,0,3.14,1.87,1.87,0,0,0,.88-.21Z" style="fill:#fff"></path><path d="M288.31,305.4v4.9h-1.14v-2H285v2h-1.14v-4.9H285v1.93h2.22V305.4Z" style="fill:#fff"></path><path d="M312.62,218.13v76.75a1.28,1.28,0,0,1-1.29,1.28H208.42a1.28,1.28,0,0,1-1.29-1.28V218.13a1.29,1.29,0,0,1,1.29-1.29H311.33A1.29,1.29,0,0,1,312.62,218.13Z" style="fill:#fff"></path><path d="M224.06,224.14s-.6,33.61,0,39.35c0,0-2.38,2.14-1.58,4s3.61,0,3.61,0,43.46,8.62,69.37-2.85c0,0,3,1.78,4,.39s-1.38-4.69-1.38-4.69-1.78-30.46-4-36.24c0,0,1.78-4.84.79-5.32s-4.14,1-4.14,1S249,216,230.59,221.36c0,0-5.35-2.44-6.93-1.52S224.06,224.14,224.06,224.14Z" style="fill:#407BFF"></path><path d="M299.42,265.07c-1,1.39-3.95-.39-3.95-.39a56.32,56.32,0,0,1-9.16,3.09c-17.19,4.38-38.16,2.83-50.27,1.3-6.09-.78-9.94-1.54-9.94-1.54s-2.83,1.89-3.62,0,1.58-4,1.58-4c-.59-5.74,0-39.35,0-39.35s-2-3.37-.4-4.3,6.93,1.52,6.93,1.52c18.39-5.34,60.14-1.52,60.14-1.52s3.15-1.49,4.14-1-.79,5.32-.79,5.32c2.18,5.78,4,36.24,4,36.24S300.41,263.69,299.42,265.07Z" style="fill:#fff;opacity:0.6000000000000001;isolation:isolate"></path><path d="M286.31,267.77c-17.19,4.38-38.16,2.83-50.27,1.3l-1.1-4.93s5.93-6.18,6.13-12.41c0,0-4.24-5.67-1.82-11.1a24.54,24.54,0,0,0-2.86-7.82s6.59,1.38,8,5c0,0,3.32-2.25,5.62-1.81a12.22,12.22,0,0,1,9.66-11.82c9.84-2.39,21.57,6.73,21.57,6.73a18.82,18.82,0,0,1,5.28-3.62,34.32,34.32,0,0,0-1.18,5.56s4.12,2.59,4.55,14.1C290.18,253.67,288.08,262,286.31,267.77Z" style="opacity:0.1;isolation:isolate"></path><path d="M247.34,260l3.32-7.18s2.48-10.82,2.26-11.76-7.9-.3-8.38,1.12-1.64,9.11.7,10.58l-3.11,5.43Z" style="fill:#ebb376"></path><path d="M247.34,260l3.32-7.18s2.48-10.82,2.26-11.76-7.9-.3-8.38,1.12-1.64,9.11.7,10.58l-3.11,5.43Z" style="opacity:0.1;isolation:isolate"></path><path d="M250.29,256.39l-6.39-1.64s-18.12,16.83-17.8,25.19,26.3,2.71,26.3,2.71l-.09-20.49s-1.72.42-4,1.11c-1.31.39-4.93,4.56-4.93,4.56Z" style="fill:#407BFF"></path><path d="M250.29,256.39l-6.39-1.64s-18.12,16.83-17.8,25.19,26.3,2.71,26.3,2.71l-.09-20.49s-1.72.42-4,1.11c-1.31.39-4.93,4.56-4.93,4.56Z" style="opacity:0.1;isolation:isolate"></path><path d="M254.13,259.25l-.27-5.27s3.16-10.64,3-11.6-7.86-.8-8.42.59-2.22,9,0,10.6l-.38,7Z" style="fill:#ebb376"></path><path d="M264.57,224.14s5-4.15,13.73,1.18,13.46,30,12.24,47.28-32.13,9.52-32.13,9.52S245.76,231.05,264.57,224.14Z" style="fill:#263238"></path><path d="M292.6,265.94c-.72,2-1.36,3.95-2,5.76l-.06.18c-.77,2.32-1.46,4.47-2.09,6.49,0,0,0,.05,0,.07-.18.57-.35,1.12-.51,1.67h0c0,.12-.06.23-.1.35-.9,3-1.64,5.66-2.24,8.11-.19.76-.37,1.49-.53,2.19-.45,1.95-.79,3.72-1.06,5.4H250.16c0-1,0-2-.07-2.91-.07-3.84-.06-7.2,0-10.15,0-.17,0-.34,0-.5,0-1.24.06-2.41.1-3.5.14-3.61.35-6.46.54-8.71.06-.63.11-1.2.16-1.74.45-4.6,1.08-6,1.41-6.48.13-.18.21-.2.21-.2s.94-.09,2.42-.2l1.14-.09c2.58-.18,6.18-.38,9.51-.35.43,0,.85,0,1.28.06q4.33.19,8.64.78c1.37.18,2.74.4,4.11.64q3.87.65,7.67,1.62c1,.26,2.09.54,3.12.85h0l.3.09c.58.16,1.15.34,1.72.52h0Z" style="fill:#407BFF"></path><path d="M292.6,265.94c-.72,2-1.36,3.95-2,5.76l-.06.18c-.77,2.32-1.46,4.47-2.09,6.49,0,0,0,.05,0,.07-.18.57-.35,1.12-.51,1.67h0c0,.12-.06.23-.1.35-.9,3-1.64,5.66-2.24,8.11-.19.76-.37,1.49-.53,2.19-.45,1.95-.79,3.72-1.06,5.4H250.16c0-1,0-2-.07-2.91-.07-3.84-.06-7.2,0-10.15,0-.17,0-.34,0-.5,0-1.24.06-2.41.1-3.5.14-3.61.35-6.46.54-8.71.06-.63.11-1.2.16-1.74.45-4.6,1.08-6,1.41-6.48.13-.18.21-.2.21-.2s.94-.09,2.42-.2l1.14-.09c2.58-.18,6.18-.38,9.51-.35.43,0,.85,0,1.28.06q4.33.19,8.64.78c1.37.18,2.74.4,4.11.64q3.87.65,7.67,1.62c1,.26,2.09.54,3.12.85h0l.3.09c.58.16,1.15.34,1.72.52h0Z" style="fill:#fff;opacity:0.1;isolation:isolate"></path><path d="M265.13,264.8a5.45,5.45,0,0,1,.87-.56c.61-.68,1.24-2.18.64-5.46a25.92,25.92,0,0,0-1-3.79l8.85-3.26s-2.07,6.68,1.31,10.8c1,.25,1.59.72,1.62,1.48.22,5.4-9.9,8.68-9.9,8.68S260.13,268.77,265.13,264.8Z" style="fill:#ebb376"></path><path d="M265.63,255a25.92,25.92,0,0,1,1,3.79c6.18-1,7.84-7,7.84-7Z" style="opacity:0.2;isolation:isolate"></path><path d="M264.57,224.14s-10.95.47-11.45,9.43a13.48,13.48,0,0,0,7,12.63Z" style="fill:#263238"></path><path d="M266.33,228.57c-8,.92-10.11,5.51-9.75,13.84.45,10.41,3.58,17.49,13.35,14.13C283.21,252,279.65,227.05,266.33,228.57Z" style="fill:#ebb376"></path><path d="M261.71,241.37a17,17,0,0,1-1.95,3.59,2.23,2.23,0,0,0,2.22.67Z" style="fill:#d58745"></path><path d="M266,234.6a4.2,4.2,0,0,1,3.62.82" style="fill:none;stroke:#263238;stroke-linecap:round;stroke-linejoin:round;stroke-width:0.686238px"></path><path d="M260.12,234.93a3.77,3.77,0,0,0-3.12,1" style="fill:none;stroke:#263238;stroke-linecap:round;stroke-linejoin:round;stroke-width:0.686238px"></path><path d="M276.64,241.08s-4.5-6.16-4.52-11.31c0,0-16.63-4.67-15.57,11.55,0,0-3.19-14.14,10.56-16s16,18.27,9.57,25.1C276.68,250.38,279.43,244.94,276.64,241.08Z" style="fill:#263238"></path><path d="M275.53,242.93a3.53,3.53,0,0,1,3.41-3.65c2.52,0,4.29,4.95-1.75,6.89C276.32,246.44,275.72,245.63,275.53,242.93Z" style="fill:#ebb376"></path><path d="M260.16,228.13a8.61,8.61,0,0,0,6.69,9.07,10.67,10.67,0,0,1-5.42-6.87s5.74,8.77,14.05,5.72S273,217.72,260.16,228.13Z" style="fill:#263238"></path><path d="M262.47,248.69a3.84,3.84,0,0,0,3.83-2.05" style="fill:none;stroke:#263238;stroke-linecap:round;stroke-linejoin:round;stroke-width:0.5px"></path><path d="M257.87,241.05s1.1,1.69,2.43-.41" style="fill:none;stroke:#263238;stroke-linecap:round;stroke-linejoin:round;stroke-width:0.5px"></path><path d="M264.82,240.28s1.1,1.69,2.43-.41" style="fill:none;stroke:#263238;stroke-linecap:round;stroke-linejoin:round;stroke-width:0.5px"></path><path d="M312.62,274.78v20.1a1.28,1.28,0,0,1-1.29,1.28H208.42a1.28,1.28,0,0,1-1.29-1.28v-19c3.63.63,11.18,1.94,19,3.24,9.61,1.6,19.62,3.17,23.3,3.46l.67.06,1.09.11.57.07h0c6.78.78,17.3,2.6,27.17.61l.57-.11.18,0,1-.24.51-.13.51-.14.23-.07a30.73,30.73,0,0,0,3.8-1.36l.88-.37h0c.39-.17.79-.33,1.19-.48C297.15,276.86,307.9,275.32,312.62,274.78Z" style="fill:#407BFF"></path><path d="M312.62,274.78v20.1a1.28,1.28,0,0,1-1.29,1.28H208.42a1.28,1.28,0,0,1-1.29-1.28v-19c3.63.63,11.18,1.94,19,3.24,9.61,1.6,19.62,3.17,23.3,3.46l.67.06,1.09.11.57.07h0c6.78.78,17.3,2.6,27.17.61l.57-.11.18,0,1-.24.51-.13.51-.14.23-.07a30.73,30.73,0,0,0,3.8-1.36l.88-.37h0c.39-.17.79-.33,1.19-.48C297.15,276.86,307.9,275.32,312.62,274.78Z" style="fill:#fff;opacity:0.6000000000000001;isolation:isolate"></path><path d="M312.62,274.78V286c-8,.63-18.51,2-27.54,4.76l-.1,0c-12.67,3.93-21.9,4.54-34.89,2.46-4.66-.75-9.8-1.84-15.75-3.25a166.48,166.48,0,0,0-27.21-4.41v-9.75c3.63.63,11.18,1.94,19,3.24,9.61,1.6,19.62,3.17,23.3,3.46l.67.06,1.09.11.57.07h0c6.78.78,17.3,2.6,27.17.61l.57-.11.18,0,1-.24.51-.13.51-.14.23-.07a30.73,30.73,0,0,0,3.8-1.36l.88-.37h0c.39-.17.79-.33,1.19-.48C297.15,276.86,307.9,275.32,312.62,274.78Z" style="fill:#fff;opacity:0.6000000000000001;isolation:isolate"></path><path d="M292.6,265.94c-5.58-4.13-31.18,12.14-31.18,12.14l-7.17-22-7.08,1.28s1.61,29.17,8.93,34.07,25.81-7.49,31.86-11.31S294.1,267.06,292.6,265.94Z" style="fill:#407BFF"></path><path d="M243.34,267.83s-3.93,9.35-5.5,11.12c0,0,1.6.4,4.29-3.29A9,9,0,0,0,243.34,267.83Z" style="opacity:0.2;isolation:isolate"></path><path d="M224.54,229.68l3.05-3.69v-.84H222.9v1.06h3l-1.91,2.3-1.16,1.39v.84h4.88v-1.06Z"></path><path d="M230.85,233.48l2.4-2.9v-.66h-3.69v.83h2.35l-2.4,2.9v.66h3.83v-.83Z"></path><path d="M235.33,236.94l1.72-2.08v-.47h-2.64V235h1.68l-1.72,2.08v.47h2.75v-.59Z"></path><path d="M239,239.89l.09-.1,1-1.2v-.3h-1.66v.38h1.06l-.51.61-.57.69v.29h1.72v-.37Z"></path></g><g id="freepik--pop-up-2--inject-31"><rect x="326.58" y="97.72" width="113.22" height="106.78" rx="4.5" style="fill:#407BFF"></rect><path d="M355.1,194.29v.91h-3.8v-4.91H355v.92h-2.58v1.06h2.27v.88h-2.27v1.14Z" style="fill:#fff"></path><path d="M359,195.2l-1.19-1.7-1.16,1.7h-1.3l1.81-2.5-1.72-2.41h1.29l1.13,1.59,1.1-1.59h1.23l-1.71,2.37,1.83,2.54Z" style="fill:#fff"></path><path d="M360.46,192.75a2.7,2.7,0,0,1,4.68-1.67l-.73.67a1.56,1.56,0,0,0-1.23-.57,1.57,1.57,0,1,0,0,3.14,1.55,1.55,0,0,0,1.23-.59l.73.68a2.7,2.7,0,0,1-4.68-1.66Z" style="fill:#fff"></path><path d="M369.7,194.29v.91h-3.8v-4.91h3.71v.92H367v1.06h2.28v.88H367v1.14Z" style="fill:#fff"></path><path d="M373.72,195.2l-.94-1.37h-1v1.37H370.6v-4.91h2.12c1.31,0,2.13.68,2.13,1.78a1.59,1.59,0,0,1-1,1.55l1.1,1.58Zm-1.06-4h-.93v1.71h.93c.69,0,1-.32,1-.86S373.35,191.22,372.66,191.22Z" style="fill:#fff"></path><path d="M375.44,192.75a2.69,2.69,0,0,1,4.67-1.67l-.72.67a1.58,1.58,0,0,0-1.24-.57,1.57,1.57,0,0,0,0,3.14,1.57,1.57,0,0,0,1.24-.59l.72.68a2.69,2.69,0,0,1-4.67-1.66Z" style="fill:#fff"></path><path d="M380.88,190.29H382v4.91h-1.13Z" style="fill:#fff"></path><path d="M382.79,194.71l.38-.85a2.89,2.89,0,0,0,1.62.51c.67,0,.94-.22.94-.52,0-.92-2.85-.29-2.85-2.11,0-.84.68-1.53,2.07-1.53a3.23,3.23,0,0,1,1.7.44l-.35.86a2.74,2.74,0,0,0-1.36-.39c-.67,0-.93.25-.93.56,0,.91,2.85.28,2.85,2.08,0,.82-.68,1.52-2.08,1.52A3.43,3.43,0,0,1,382.79,194.71Z" style="fill:#fff"></path><path d="M391.43,194.29v.91h-3.79v-4.91h3.7v.92h-2.58v1.06H391v.88h-2.28v1.14Z" style="fill:#fff"></path><path d="M394.31,190.29h2.23a2.47,2.47,0,1,1,0,4.91h-2.23Zm2.18,4a1.52,1.52,0,1,0,0-3h-1v3Z" style="fill:#fff"></path><path d="M403.26,194.15H401l-.44,1h-1.16l2.19-4.91h1.12l2.19,4.91h-1.19Zm-.36-.86-.78-1.88-.78,1.88Z" style="fill:#fff"></path><path d="M405.39,190.29h1.13v4.91h-1.13Z" style="fill:#fff"></path><path d="M407.69,190.29h1.13v4h2.46v.93h-3.59Z" style="fill:#fff"></path><path d="M413.76,193.46v1.74h-1.13v-1.75l-1.9-3.16h1.2l1.31,2.18,1.31-2.18h1.12Z" style="fill:#fff"></path><path d="M435.93,102.26V179a1.28,1.28,0,0,1-1.28,1.28H331.74a1.28,1.28,0,0,1-1.29-1.28V102.26a1.28,1.28,0,0,1,1.29-1.28H434.65A1.28,1.28,0,0,1,435.93,102.26Z" style="fill:#fff"></path><path d="M409.81,125l8-2.14a4.44,4.44,0,0,1,1.14,4.27l-8,2.14Z" style="fill:#407BFF"></path><path d="M401.92,129.42c1.07,4,4.65,6.54,8,5.64s5.21-4.87,4.14-8.88-4.66-6.53-8-5.64S400.85,125.41,401.92,129.42Z" style="fill:#407BFF"></path><path d="M401.92,129.42c1.07,4,4.65,6.54,8,5.64s5.21-4.87,4.14-8.88-4.66-6.53-8-5.64S400.85,125.41,401.92,129.42Z" style="opacity:0.2;isolation:isolate"></path><path d="M401.92,129.42c1.07,4,4.4,6.6,7.44,5.79s4.64-4.72,3.57-8.73-4.41-6.6-7.45-5.79S400.85,125.41,401.92,129.42Z" style="fill:#407BFF"></path><path d="M401.92,129.42c.82,3.08,3.38,5.08,5.72,4.45s3.56-3.62,2.74-6.71-3.38-5.07-5.72-4.45S401.09,126.34,401.92,129.42Z" style="fill:#fff;opacity:0.2;isolation:isolate"></path><path d="M435.93,115.88v11.79a5.34,5.34,0,0,1-1.92,1l-.19,0h-.05c-2.65.59-5.42-.93-6.94-3.62a4.63,4.63,0,0,1-.29-.64,3.1,3.1,0,0,1-.21-.45l0,0a.68.68,0,0,1-.07-.2l-.06-.17,0-.07c-.06-.16-.1-.33-.15-.5s-.09-.36-.13-.54a.06.06,0,0,0,0,0,.13.13,0,0,0,0-.06c0-.11,0-.22-.05-.33a.57.57,0,0,1,0-.18,9.59,9.59,0,0,1-.07-1.06c0-3.05,1.58-5.74,4.14-6.57,0,0,0,0,0,0s0,0,0,0,.18-.06.27-.09A6,6,0,0,1,435.93,115.88Z" style="fill:#407BFF"></path><path d="M435.93,115.88v11.79a5.34,5.34,0,0,1-1.92,1l-.19,0h-.05c-2.65.59-5.42-.93-6.94-3.62a4.63,4.63,0,0,1-.29-.64,3.1,3.1,0,0,1-.21-.45l0,0a.68.68,0,0,1-.07-.2l-.06-.17,0-.07c-.06-.16-.1-.33-.15-.5s-.09-.36-.13-.54a.06.06,0,0,0,0,0,.13.13,0,0,0,0-.06c0-.11,0-.22-.05-.33a.57.57,0,0,1,0-.18,9.59,9.59,0,0,1-.07-1.06c0-3.05,1.58-5.74,4.14-6.57,0,0,0,0,0,0s0,0,0,0,.18-.06.27-.09A6,6,0,0,1,435.93,115.88Z" style="opacity:0.2;isolation:isolate"></path><path d="M435.93,117.53v9.54a4.68,4.68,0,0,1-2.11,1.6h-.05a2.13,2.13,0,0,1-.33.11c-2.48.66-5.15-.94-6.63-3.73a8.1,8.1,0,0,1-.5-1.12.68.68,0,0,1-.07-.2l-.06-.17,0-.07c-.06-.16-.1-.33-.15-.5s-.09-.36-.13-.54a.06.06,0,0,0,0,0,.13.13,0,0,0,0-.06c0-.11,0-.22-.05-.33a.57.57,0,0,1,0-.18,7.7,7.7,0,0,1-.09-1c-.11-3.15,1.4-5.87,3.88-6.53a1.37,1.37,0,0,1,.28,0s0,0,0,0,0,0,0,0C432.12,113.77,434.48,115.14,435.93,117.53Z" style="fill:#407BFF"></path><path d="M426,123c.82,3.08,3.38,5.07,5.72,4.45s3.56-3.63,2.74-6.71-3.38-5.08-5.72-4.45S425.17,119.92,426,123Z" style="fill:#fff;opacity:0.2;isolation:isolate"></path><path d="M421.66,121.87l8-2.14a4.41,4.41,0,0,1,1.13,4.26l-8,2.15Z" style="fill:#407BFF"></path><path d="M400.55,146.1c4.34.1,20.56,13,22.54,13s-2.77-26.9-2.77-26.9a32.16,32.16,0,0,1-3-3.46c-1.19-1.68-4.15-6.32-2.37-7.66s8.7-3.14,9.69-2.44,1.25,11.88,1.25,11.88S440,164.61,430,170.37c-7.12,4.11-21.89-6.37-28.05-8.75Z" style="fill:#ebb376"></path><path d="M380.84,106.63s-10-3-14.32,4.63c0,0-3.57-2.69-8.51,0s-4.35,11.76,0,16.62,0,10.43,0,10.43,1.78,1.6,4.94,0,3-8.6,3-8.6,5.77,9.54,15.67,6.88S400.51,109.28,380.84,106.63Z" style="fill:#263238"></path><path d="M402.91,180.29H369.05c-.37-2.29-.88-4.77-1.59-7.59-.5-2-1.09-4.17-1.78-6.54a.18.18,0,0,0,0,0c-.34-1.15-.71-2.35-1.1-3.61-.64-2.06-1.35-4.28-2.15-6.67q-.89-2.72-1.95-5.75a91.92,91.92,0,0,1,13-3.14c.8-.14,1.61-.28,2.42-.39q4.77-.74,9.59-1c.68,0,1.35-.08,2-.1,6.08,0,13.07.64,13.07.64s1,.24,1.62,6.68c.21,2.23.47,5.22.65,9.2C403,166.61,403.12,172.58,402.91,180.29Z" style="fill:#407BFF"></path><path d="M402.91,180.29H369.05c-.37-2.29-.88-4.77-1.59-7.59-.5-2-1.09-4.17-1.78-6.54a.18.18,0,0,0,0,0c-.34-1.15-.71-2.35-1.1-3.61-.64-2.06-1.35-4.28-2.15-6.67q-.89-2.72-1.95-5.75a91.92,91.92,0,0,1,13-3.14c.8-.14,1.61-.28,2.42-.39q4.77-.74,9.59-1c.68,0,1.35-.08,2-.1,6.08,0,13.07.64,13.07.64s1,.24,1.62,6.68c.21,2.23.47,5.22.65,9.2C403,166.61,403.12,172.58,402.91,180.29Z" style="fill:#fff;opacity:0.1;isolation:isolate"></path><path d="M387.13,146.81a5.66,5.66,0,0,0-1-.41c-.72-.57-1.59-1.94-1.55-5.28a27.06,27.06,0,0,1,.36-3.9l-9.27-1.73s3.16,6.24.52,10.87c-.9.41-1.45,1-1.35,1.73.7,5.36,8,7.73,11.22,6.89C388.09,154.46,392.72,149.88,387.13,146.81Z" style="fill:#ebb376"></path><path d="M385,137.22a27.06,27.06,0,0,0-.36,3.9c-6.26,0-8.91-5.63-8.91-5.63Z" style="opacity:0.2;isolation:isolate"></path><path d="M380.84,106.63s10.88-1.38,12.88,7.37A13.49,13.49,0,0,1,389,127.63Z" style="fill:#263238"></path><path d="M379.86,111.29c8.06-.44,10.89,3.73,11.93,12,1.31,10.34-.59,17.84-10.79,16.17C367.15,137.21,366.47,112,379.86,111.29Z" style="fill:#ebb376"></path><path d="M386.56,123.13a16.88,16.88,0,0,0,2.53,3.22,2.23,2.23,0,0,1-2.08,1Z" style="fill:#d58745"></path><path d="M381.59,122.74c.05.67-.27,1.23-.71,1.26s-.84-.47-.89-1.13.26-1.23.71-1.26S381.54,122.08,381.59,122.74Z" style="fill:#263238"></path><path d="M380.51,121.66l1.4-.68S381.29,122.25,380.51,121.66Z" style="fill:#263238"></path><path d="M389.8,122c.05.66-.27,1.23-.71,1.26s-.84-.47-.89-1.13.26-1.23.7-1.26S389.74,121.3,389.8,122Z" style="fill:#263238"></path><path d="M388.72,120.87l1.4-.67S389.5,121.46,388.72,120.87Z" style="fill:#263238"></path><path d="M381.2,117.18a4.21,4.21,0,0,0-3.43,1.41" style="fill:none;stroke:#263238;stroke-linecap:round;stroke-linejoin:round;stroke-width:0.686238px"></path><path d="M387,116.52a3.79,3.79,0,0,1,3.25.49" style="fill:none;stroke:#263238;stroke-linecap:round;stroke-linejoin:round;stroke-width:0.686238px"></path><path d="M371.79,125.36s3.41-6.83,2.56-11.91c0,0,15.61-7.4,17.29,8.77,0,0,.77-14.48-13.1-14s-12.71,20.7-5.22,26.35C373.32,134.53,369.69,129.63,371.79,125.36Z" style="fill:#263238"></path><path d="M373.2,127a3.53,3.53,0,0,0-4-3c-2.49.41-3.4,5.6,2.89,6.49C373,130.59,373.46,129.69,373.2,127Z" style="fill:#ebb376"></path><path d="M385.86,109.82a8.6,8.6,0,0,1-5.07,10.06A10.66,10.66,0,0,0,385,112.2s-4.19,9.61-12.89,8S371.42,101.72,385.86,109.82Z" style="fill:#263238"></path><path d="M387.47,130.47s-3.84,1.29-5-1.78" style="fill:none;stroke:#263238;stroke-linecap:round;stroke-linejoin:round;stroke-width:0.5px"></path><path d="M365.68,166.16A95.28,95.28,0,0,1,362,180.29H342.9c-1-2.48-1.75-5-2.35-7.19h0c-.64-2.35-1.08-4.29-1.3-5.32,0-.08,0-.15-.05-.21l0-.15s0-.08,0-.12-.05-.21-.06-.27a.42.42,0,0,1,0-.07s-2.35-3.91-4.11-7.46c0,0,0,0,0,0a.3.3,0,0,0,0-.08l-.26-.53c-1.16-2.42-1.95-4.54-1.4-4.95l0,0a9.3,9.3,0,0,1,2.81-.54h.23c3.67-.25,9.2.3,9.62,3.57,0,.14,0,.28.05.42a33,33,0,0,1,.21,4.63,21.29,21.29,0,0,1-.26,2.86l3.69,8.31h0l1.84,4.15s.54-3.53,1.48-8c0,0,0,0,0-.06q.18-.9.39-1.83a92.4,92.4,0,0,1,2.95-10.76c.22-.59.44-1.16.66-1.7l0-.08h0c1.05-2.53,2.22-4.34,3.45-4.7,0,0,2.49,1.46,3.47,6.4.93,4.64,1.65,9.09,1.73,9.63A.18.18,0,0,1,365.68,166.16Z" style="fill:#ebb376"></path><path d="M352.25,159l-8-2.14a4.44,4.44,0,0,0-1.14,4.27l8,2.14Z" style="fill:#407BFF"></path><ellipse cx="354.06" cy="161.74" rx="7.51" ry="6.29" transform="matrix(0.26, -0.97, 0.97, 0.26, 106.51, 462.14)" style="fill:#407BFF"></ellipse><ellipse cx="354.06" cy="161.74" rx="7.51" ry="6.29" transform="matrix(0.26, -0.97, 0.97, 0.26, 106.51, 462.14)" style="opacity:0.2;isolation:isolate"></ellipse><path d="M360.14,163.37c-1.07,4-4.4,6.6-7.44,5.79s-4.64-4.72-3.57-8.73,4.4-6.6,7.44-5.79S361.21,159.36,360.14,163.37Z" style="fill:#407BFF"></path><ellipse cx="355.91" cy="162.24" rx="5.77" ry="4.38" transform="translate(107.39 464.28) rotate(-75.06)" style="fill:#fff;opacity:0.2;isolation:isolate"></ellipse><path d="M336.36,154.73a9.59,9.59,0,0,1-.07,1.06c0,.19-.06.38-.1.57s-.08.39-.13.58a4.74,4.74,0,0,1-.15.5l0,.1a.08.08,0,0,0,0,.05c-.07.21-.15.41-.23.61a5,5,0,0,1-.28.57l-.13.23a3.14,3.14,0,0,1-.28.46,7,7,0,0,1-4.49,3.2V147.89a4.93,4.93,0,0,1,1.47.17l.31.1h0a6.31,6.31,0,0,1,4,5.16A7.32,7.32,0,0,1,336.36,154.73Z" style="fill:#407BFF"></path><path d="M336.36,154.73a9.59,9.59,0,0,1-.07,1.06c0,.19-.06.38-.1.57s-.08.39-.13.58a4.74,4.74,0,0,1-.15.5l0,.1a.08.08,0,0,0,0,.05c-.07.21-.15.41-.23.61a5,5,0,0,1-.28.57l-.13.23a3.14,3.14,0,0,1-.28.46,7,7,0,0,1-4.49,3.2V147.89a4.93,4.93,0,0,1,1.47.17l.31.1h0a6.31,6.31,0,0,1,4,5.16A7.32,7.32,0,0,1,336.36,154.73Z" style="opacity:0.2;isolation:isolate"></path><path d="M336.38,154.74a6.2,6.2,0,0,1-.09,1c0,.19-.06.38-.1.57s-.08.39-.13.58a4.74,4.74,0,0,1-.15.5s0,0,0,.05a.43.43,0,0,0,0,0,.08.08,0,0,0,0,.05c-.07.21-.15.41-.23.61a5,5,0,0,1-.28.57,2.56,2.56,0,0,1-.11.24,4.76,4.76,0,0,1-.28.49,6.71,6.71,0,0,1-4.51,3.32V148.15a4.27,4.27,0,0,1,1.78,0h0l.25.05c2.09.56,3.5,2.58,3.83,5.1A8.42,8.42,0,0,1,336.38,154.74Z" style="fill:#407BFF"></path><path d="M336.3,154.72a7.07,7.07,0,0,1-.11,1.64c0,.2-.08.39-.13.58a4.74,4.74,0,0,1-.15.5s0,0,0,.05a7.17,7.17,0,0,1-.72,1.5,3.83,3.83,0,0,1-.27.39,4.42,4.42,0,0,1-4.45,2V150.69a3.71,3.71,0,0,1,2.87-.46,4.14,4.14,0,0,1,2.77,3.1A6.21,6.21,0,0,1,336.3,154.72Z" style="fill:#fff;opacity:0.2;isolation:isolate"></path><path d="M340.4,155.81l-8-2.14a4.44,4.44,0,0,0-1.14,4.27l8,2.14Z" style="fill:#407BFF"></path><path d="M349.64,173.1h-9.1c-1-3.53-1.47-6.14-1.47-6.14s-7.37-12.26-5.79-13.09,12.07-1.54,12.66,3a28.45,28.45,0,0,1,0,7.91Z" style="fill:#ebb376"></path></g><g id="freepik--pop-up-1--inject-31"><rect x="203.27" y="97.72" width="113.22" height="106.78" rx="4.5" style="fill:#407BFF"></rect><path d="M233.84,185.29h2.22a2.47,2.47,0,1,1,0,4.91h-2.22Zm2.17,4a1.52,1.52,0,1,0,0-3h-1v3Z" style="fill:#fff"></path><path d="M242.74,190.2l-.94-1.37h-1.05v1.37h-1.13v-4.91h2.12c1.31,0,2.13.68,2.13,1.78a1.59,1.59,0,0,1-1,1.55l1.1,1.58Zm-1.06-4h-.93v1.71h.93c.69,0,1-.32,1-.86S242.37,186.22,241.68,186.22Z" style="fill:#fff"></path><path d="M244.76,185.29h1.14v4.91h-1.14Z" style="fill:#fff"></path><path d="M251.56,185.29v4.91h-.94l-2.44-3v3h-1.12v-4.91H248l2.44,3v-3Z" style="fill:#fff"></path><path d="M254.5,188.27l-.66.69v1.24h-1.12v-4.91h1.12v2.3l2.17-2.3h1.26l-2,2.19,2.15,2.72h-1.32Z" style="fill:#fff"></path><path d="M267.29,185.29l-1.61,4.91h-1.22l-1.07-3.32-1.12,3.32h-1.21l-1.61-4.91h1.18l1.1,3.45,1.16-3.45h1.05l1.12,3.48,1.14-3.48Z" style="fill:#fff"></path><path d="M271,189.15H268.7l-.43,1h-1.16l2.18-4.91h1.12l2.19,4.91h-1.19Zm-.36-.86-.77-1.88-.78,1.88Z" style="fill:#fff"></path><path d="M273.88,186.22h-1.57v-.93h4.28v.93H275v4h-1.14Z" style="fill:#fff"></path><path d="M281,189.29v.91h-3.8v-4.91h3.71v.92h-2.58v1.06h2.28v.88h-2.28v1.14Z" style="fill:#fff"></path><path d="M285,190.2l-.95-1.37h-1v1.37h-1.14v-4.91H284c1.31,0,2.13.68,2.13,1.78a1.59,1.59,0,0,1-1,1.55l1.1,1.58Zm-1.07-4H283v1.71H284c.69,0,1-.32,1-.86S284.64,186.22,284,186.22Z" style="fill:#fff"></path><path d="M229.11,197.55h-2.27l-.44,1h-1.16l2.19-4.91h1.12l2.19,4.91h-1.19Zm-.35-.86-.78-1.88-.78,1.88Z" style="fill:#fff"></path><path d="M235.74,193.69v4.91h-.93l-2.44-3v3h-1.12v-4.91h.94l2.43,3v-3Z" style="fill:#fff"></path><path d="M236.9,193.69h2.23a2.47,2.47,0,1,1,0,4.91H236.9Zm2.17,4a1.52,1.52,0,1,0,0-3h-1v3Z" style="fill:#fff"></path><path d="M248.46,197.69v.91h-3.79v-4.91h3.7v.92h-2.58v1.06h2.28v.88h-2.28v1.14Z" style="fill:#fff"></path><path d="M252.59,197.55h-2.28l-.43,1h-1.16l2.18-4.91H252l2.2,4.91H253Zm-.36-.86-.77-1.88-.78,1.88Z" style="fill:#fff"></path><path d="M255.49,194.62h-1.56v-.93h4.27v.93h-1.57v4h-1.14Z" style="fill:#fff"></path><path d="M265.28,193.69v4.91h-1.13v-2h-2.23v2h-1.13v-4.91h1.13v1.94h2.23v-1.94Z" style="fill:#fff"></path><path d="M270.24,197.69v.91h-3.8v-4.91h3.71v.92h-2.58v1.06h2.28v.88h-2.28v1.14Z" style="fill:#fff"></path><path d="M274.37,197.55h-2.28l-.43,1h-1.17l2.19-4.91h1.12L276,198.6H274.8Zm-.36-.86-.78-1.88-.77,1.88Z" style="fill:#fff"></path><path d="M276.5,193.69h1.14v4h2.45v.93H276.5Z" style="fill:#fff"></path><path d="M281.29,194.62h-1.57v-.93H284v.93h-1.57v4h-1.13Z" style="fill:#fff"></path><path d="M289.1,193.69v4.91H288v-2h-2.23v2H284.6v-4.91h1.13v1.94H288v-1.94Z" style="fill:#fff"></path><path d="M292.61,196.86v1.74h-1.14v-1.75l-1.89-3.16h1.2l1.31,2.18,1.31-2.18h1.11Z" style="fill:#fff"></path><path d="M312.62,102.52v76.75a1.35,1.35,0,0,1-.1.5,1.3,1.3,0,0,1-1.19.78H208.42a1.3,1.3,0,0,1-1.19-.78,1.35,1.35,0,0,1-.1-.5V102.52a1.29,1.29,0,0,1,1.29-1.29H311.33A1.29,1.29,0,0,1,312.62,102.52Z" style="fill:#fff"></path><path d="M244.65,146.52l3.84-5.28a13.38,13.38,0,0,0,2.49-1c1.45-.72,5.29-4.56,5.12-5.51s-.84-7.41-2.22-7.87-6.53,3.16-7.19,4.09-.92,6.33-.92,6.33L240,144.08Z" style="fill:#ebb376"></path><path d="M252.52,143.36l-1,9.95-.42,4.22a74.82,74.82,0,0,1-5.66,4.95c-5.8,4.6-14.49,10.06-18.28,5.14-5.93-7.71,14.67-27,14.67-27l5.49,3.63-1.55,3C246,147,250.12,143.67,252.52,143.36Z" style="fill:#407BFF"></path><path d="M245.77,147.24s-5.14,11.81-8.24,14.31C237.53,161.55,245.57,158.65,245.77,147.24Z" style="opacity:0.2;isolation:isolate"></path><path d="M251.53,153.31l-.42,4.22a74.82,74.82,0,0,1-5.66,4.95A65.09,65.09,0,0,1,251.53,153.31Z" style="opacity:0.2;isolation:isolate"></path><path d="M272.22,103.88s5.6-3.25,13.34,3.47,8.23,31.81,4.12,48.67-33.27,4-33.27,4S252.52,107.53,272.22,103.88Z" style="fill:#263238"></path><path d="M292.6,147.33c-.72,2-1.36,3.95-2,5.76l-1,2.92h0c-.19.6-.38,1.18-.56,1.76a0,0,0,0,0,0,0c-.21.66-.42,1.31-.62,1.95l-.55,1.79c-.45,1.49-.86,2.91-1.23,4.25s-.78,2.84-1.1,4.16c-.42,1.67-.77,3.21-1.06,4.67l-.12.59c-.31,1.6-.55,3.1-.74,4.55,0,.26-.07.52-.1.78H250.25l0-.78c-.06-1.8-.1-3.52-.13-5.14-.12-6.82,0-12.15.2-16.32.07-1.34.15-2.56.23-3.67.13-1.81.26-3.33.38-4.6.63-6.45,1.62-6.68,1.62-6.68s1.5-.15,3.71-.3c2.56-.18,6.09-.37,9.36-.34l2,.09a96,96,0,0,1,9.58,1c.81.12,1.63.25,2.44.4A92.45,92.45,0,0,1,291.35,147Z" style="fill:#407BFF"></path><path d="M292.6,147.33c-.72,2-1.36,3.95-2,5.76l-1,2.92h0c-.19.6-.38,1.18-.56,1.76a0,0,0,0,0,0,0c-.21.66-.42,1.31-.62,1.95l-.55,1.79c-.45,1.49-.86,2.91-1.23,4.25s-.78,2.84-1.1,4.16c-.42,1.67-.77,3.21-1.06,4.67l-.12.59c-.31,1.6-.55,3.1-.74,4.55,0,.26-.07.52-.1.78H250.25l0-.78c-.06-1.8-.1-3.52-.13-5.14-.12-6.82,0-12.15.2-16.32.07-1.34.15-2.56.23-3.67.13-1.81.26-3.33.38-4.6.63-6.45,1.62-6.68,1.62-6.68s1.5-.15,3.71-.3c2.56-.18,6.09-.37,9.36-.34l2,.09a96,96,0,0,1,9.58,1c.81.12,1.63.25,2.44.4A92.45,92.45,0,0,1,291.35,147Z" style="fill:#fff;opacity:0.1;isolation:isolate"></path><path d="M265.94,144.06a8.47,8.47,0,0,1,.95-.41c.72-.56,1.6-1.94,1.56-5.27a28.44,28.44,0,0,0-.36-3.9l9.27-1.74s-3.16,6.24-.52,10.88c.9.4,1.44,1,1.35,1.73-.7,5.36-11.22,6.89-11.22,6.89S260.35,147.13,265.94,144.06Z" style="fill:#ebb376"></path><path d="M268.09,134.48a28.44,28.44,0,0,1,.36,3.9c6.26,0,8.91-5.64,8.91-5.64Z" style="opacity:0.2;isolation:isolate"></path><path d="M272.22,103.88s-10.87-1.37-12.87,7.38a13.47,13.47,0,0,0,4.75,13.62Z" style="fill:#263238"></path><path d="M273.21,108.55c-8.06-.44-10.89,3.73-11.93,12-1.31,10.34.59,17.85,10.79,16.18C285.92,134.47,286.6,109.28,273.21,108.55Z" style="fill:#ebb376"></path><path d="M266.51,120.39A17,17,0,0,1,264,123.6a2.21,2.21,0,0,0,2.08,1Z" style="fill:#d58745"></path><path d="M271.48,120c-.05.66.26,1.23.7,1.26s.84-.47.9-1.13-.27-1.23-.71-1.26S271.53,119.34,271.48,120Z" style="fill:#263238"></path><path d="M272.55,118.91l-1.39-.67S271.78,119.5,272.55,118.91Z" style="fill:#263238"></path><path d="M263.27,119.22c0,.66.26,1.23.71,1.26s.84-.47.89-1.14-.27-1.22-.71-1.25S263.32,118.56,263.27,119.22Z" style="fill:#263238"></path><path d="M264.34,118.13l-1.39-.68S263.57,118.72,264.34,118.13Z" style="fill:#263238"></path><path d="M271.87,114.44a4.21,4.21,0,0,1,3.43,1.41" style="fill:none;stroke:#263238;stroke-linecap:round;stroke-linejoin:round;stroke-width:0.686238px"></path><path d="M266,113.78a3.76,3.76,0,0,0-3.25.48" style="fill:none;stroke:#263238;stroke-linecap:round;stroke-linejoin:round;stroke-width:0.686238px"></path><path d="M281.28,122.62s-3.41-6.83-2.56-11.91c0,0-15.61-7.4-17.29,8.77,0,0-.77-14.49,13.1-14s12.71,20.71,5.22,26.36C279.75,131.79,283.38,126.89,281.28,122.62Z" style="fill:#263238"></path><path d="M279.87,124.25a3.54,3.54,0,0,1,4-3c2.48.41,3.39,5.61-2.89,6.5C280.06,127.85,279.61,127,279.87,124.25Z" style="fill:#ebb376"></path><path d="M267.2,107.08a8.61,8.61,0,0,0,5.08,10.06,10.66,10.66,0,0,1-4.19-7.68s4.19,9.61,12.89,8S281.65,99,267.2,107.08Z" style="fill:#263238"></path><path d="M263.27,129.05s5,.92,3.24,2S263.27,129.05,263.27,129.05Z" style="fill:#263238"></path><path d="M257.59,123a9.68,9.68,0,0,1,7.27,7.91l-11.57,9.67s-4.87-2.45-5.95-6Z" style="fill:#407BFF"></path><path d="M264.86,130.91l-11.44,9.56-.13.11s-4.87-2.46-5.95-6L257.6,123A9.69,9.69,0,0,1,264.86,130.91Z" style="fill:#fff;opacity:0.8;isolation:isolate"></path><path d="M253.42,140.47l-.13.11s-4.87-2.46-5.95-6A8.07,8.07,0,0,1,253.42,140.47Z" style="opacity:0.2;isolation:isolate"></path><path d="M248.14,134.36l4.28-4.61s6.9-.28,11.7,1.35l-10.51,8.65A8.8,8.8,0,0,0,248.14,134.36Z" style="fill:#fff;opacity:0.8;isolation:isolate"></path><path d="M312.62,174.63v4.64a1.35,1.35,0,0,1-.1.5,1.3,1.3,0,0,1-1.19.78H208.42a1.3,1.3,0,0,1-1.19-.78,1.35,1.35,0,0,1-.1-.5v-4.64Z" style="fill:#407BFF"></path><path d="M312.62,174.63v4.64a1.35,1.35,0,0,1-.1.5,1.3,1.3,0,0,1-1.19.78H208.42a1.3,1.3,0,0,1-1.19-.78,1.35,1.35,0,0,1-.1-.5v-4.64Z" style="fill:#fff;opacity:0.6000000000000001;isolation:isolate"></path><path d="M312.52,179.77a1.3,1.3,0,0,1-1.19.78H208.42a1.3,1.3,0,0,1-1.19-.78Z" style="opacity:0.2;isolation:isolate"></path><path d="M279.07,168.38l-8.12.39s-6.62-1.88-8.6-1.78-4.94.79-4.94,1.78,1,5.72,2,6.52,10.28-.66,10.28-.66l9.4-.32Z" style="fill:#ebb376"></path><path d="M292.6,147.33c5.06,2,20.6,16.09,16.83,24.41-2.37,5.24-33.05,3.13-33.05,3.13l-.08-8.18,18.49-1.58-6.85-3.56a42.59,42.59,0,0,1,1.41-9.31A9.69,9.69,0,0,1,292.6,147.33Z" style="fill:#407BFF"></path><path d="M244.23,161.16s2.66-1.84,2.26-3-2.26-.45-2.26-.45.87-3.44,0-4.63-3,1.22-3,1.22.27-3.28-1.87-4.37-3.21,2.34-3.21,2.34-2.54-.83-4.29,0,.4,5.44.4,5.44-3.23-.45-2.42,1.84,7.27,3.93,7.27,3.93Z" style="fill:#407BFF"></path><path d="M244.23,161.16s2.66-1.84,2.26-3-2.26-.45-2.26-.45.87-3.44,0-4.63-3,1.22-3,1.22.27-3.28-1.87-4.37-3.21,2.34-3.21,2.34-2.54-.83-4.29,0,.4,5.44.4,5.44-3.23-.45-2.42,1.84,7.27,3.93,7.27,3.93Z" style="fill:#fff;opacity:0.4;isolation:isolate"></path><path d="M245.45,158.71a.32.32,0,0,0-.46-.07s-3.51,2.52-7.15,2c.13-.5.29-1.14.43-1.9,3.24-.45,4.84-3.94,4.91-4.09a.33.33,0,0,0-.17-.43.33.33,0,0,0-.44.16s-1.44,3.14-4.18,3.67a30.47,30.47,0,0,0,.37-6.51.34.34,0,0,0-.35-.32.33.33,0,0,0-.31.35,29,29,0,0,1-.23,5.43,4.93,4.93,0,0,1-4.22-3.73.32.32,0,0,0-.39-.25.33.33,0,0,0-.25.39s.92,3.87,4.77,4.24c-.11.68-.22,1.29-.34,1.82a9.67,9.67,0,0,1-6.16-.88.33.33,0,1,0-.33.57,10.49,10.49,0,0,0,4.72,1.19,9,9,0,0,0,1.6-.17c-.22.91-.41,1.45-.41,1.46a.32.32,0,0,0,.2.42.2.2,0,0,0,.11,0,.33.33,0,0,0,.31-.22s.08-.24.18-.57a9.19,9.19,0,0,0,1.15.09,12.45,12.45,0,0,0,6.57-2.24A.32.32,0,0,0,245.45,158.71Z" style="opacity:0.2;isolation:isolate"></path><path d="M226.15,159.34s2.42-2.14,1.9-3.21-2.3-.18-2.3-.18.47-3.52-.53-4.6-2.81,1.56-2.81,1.56-.12-3.29-2.36-4.13-2.92,2.7-2.92,2.7-2.62-.54-4.26.5,1,5.35,1,5.35-3.25-.07-2.19,2.1,7.68,3.07,7.68,3.07Z" style="fill:#407BFF"></path><path d="M226.15,159.34s2.42-2.14,1.9-3.21-2.3-.18-2.3-.18.47-3.52-.53-4.6-2.81,1.56-2.81,1.56-.12-3.29-2.36-4.13-2.92,2.7-2.92,2.7-2.62-.54-4.26.5,1,5.35,1,5.35-3.25-.07-2.19,2.1,7.68,3.07,7.68,3.07Z" style="fill:#fff;opacity:0.4;isolation:isolate"></path><path d="M227.08,156.76a.34.34,0,0,0-.47,0s-3.2,2.91-6.86,2.85c.07-.51.15-1.16.2-1.94,3.17-.82,4.35-4.47,4.4-4.63a.32.32,0,0,0-.21-.41.34.34,0,0,0-.42.21s-1.07,3.29-3.73,4.13a30.21,30.21,0,0,0-.38-6.51.34.34,0,0,0-.39-.27.33.33,0,0,0-.27.38,29,29,0,0,1,.4,5.41,4.9,4.9,0,0,1-4.62-3.21.33.33,0,0,0-.42-.2.33.33,0,0,0-.2.42,5.65,5.65,0,0,0,5.23,3.65c0,.69-.08,1.31-.13,1.85a9.58,9.58,0,0,1-6.22-.16.34.34,0,0,0-.44.18.33.33,0,0,0,.18.43,10.41,10.41,0,0,0,4.82.63,8.35,8.35,0,0,0,1.58-.36,14.87,14.87,0,0,1-.25,1.51.33.33,0,0,0,.25.39h.11a.35.35,0,0,0,.29-.26s.05-.24.11-.59a8.93,8.93,0,0,0,1.16,0,12.42,12.42,0,0,0,6.26-3A.34.34,0,0,0,227.08,156.76Z" style="opacity:0.2;isolation:isolate"></path><path d="M230.39,153.12a3.24,3.24,0,0,1-1.2-2.89c0-2.18.19-2.83-.64-3s-.71,1.31-.71,1.31-1-2.75-1.92-3.18-.92,2.11-.92,2.11-1.86-1.72-2.52-1.07,1.88,2.79,1.88,2.79-2.23-.26-2,.65,2.16,1,2.16,1-1,.45-.44,1,2.88.33,4,1.61S230.39,153.12,230.39,153.12Z" style="fill:#407BFF"></path><path d="M230.39,153.12a3.24,3.24,0,0,1-1.2-2.89c0-2.18.19-2.83-.64-3s-.71,1.31-.71,1.31-1-2.75-1.92-3.18-.92,2.11-.92,2.11-1.86-1.72-2.52-1.07,1.88,2.79,1.88,2.79-2.23-.26-2,.65,2.16,1,2.16,1-1,.45-.44,1,2.88.33,4,1.61S230.39,153.12,230.39,153.12Z" style="opacity:0.30000000000000004;isolation:isolate"></path><path d="M236.23,159.58a1.75,1.75,0,0,0-.3-3.28,1.84,1.84,0,0,0,.1-.52,1.69,1.69,0,0,0-.27-.89,1.76,1.76,0,0,0,.27-.9,1.77,1.77,0,0,0-2.55-1.6,1.88,1.88,0,0,0-.72-.36h0a1.77,1.77,0,0,0-3.52-.27h-.05a1.78,1.78,0,0,0-1.32.6,1.77,1.77,0,0,0-3.1,1.18,1.74,1.74,0,0,0,.26.88,1.76,1.76,0,0,0-1.48,1.73,1.78,1.78,0,0,0,1.78,1.79l.09,0a1,1,0,0,0-.09.13,1.76,1.76,0,0,0-1.57,1.74,1.77,1.77,0,0,0,3.16,1.11,2.09,2.09,0,0,0,.57-.16,1.56,1.56,0,0,0-.09.44,1.78,1.78,0,0,0,3.08,1.23,1.76,1.76,0,0,0,1.7,1.38,1.77,1.77,0,0,0,1.74-1.52A1.79,1.79,0,0,0,237,161,1.73,1.73,0,0,0,236.23,159.58Z" style="fill:#407BFF"></path><path d="M236.23,159.58a1.75,1.75,0,0,0-.3-3.28,1.84,1.84,0,0,0,.1-.52,1.69,1.69,0,0,0-.27-.89,1.76,1.76,0,0,0,.27-.9,1.77,1.77,0,0,0-2.55-1.6,1.88,1.88,0,0,0-.72-.36h0a1.77,1.77,0,0,0-3.52-.27h-.05a1.78,1.78,0,0,0-1.32.6,1.77,1.77,0,0,0-3.1,1.18,1.74,1.74,0,0,0,.26.88,1.76,1.76,0,0,0-1.48,1.73,1.78,1.78,0,0,0,1.78,1.79l.09,0a1,1,0,0,0-.09.13,1.76,1.76,0,0,0-1.57,1.74,1.77,1.77,0,0,0,3.16,1.11,2.09,2.09,0,0,0,.57-.16,1.56,1.56,0,0,0-.09.44,1.78,1.78,0,0,0,3.08,1.23,1.76,1.76,0,0,0,1.7,1.38,1.77,1.77,0,0,0,1.74-1.52A1.79,1.79,0,0,0,237,161,1.73,1.73,0,0,0,236.23,159.58Z" style="opacity:0.2;isolation:isolate"></path><path d="M229.87,152.31a1.21,1.21,0,1,1-1.21-1.21A1.21,1.21,0,0,1,229.87,152.31Z" style="fill:#407BFF"></path><path d="M234,151.91a1.21,1.21,0,1,1-1.21-1.21A1.21,1.21,0,0,1,234,151.91Z" style="fill:#407BFF"></path><circle cx="229.87" cy="155.55" r="1.21" style="fill:#407BFF"></circle><circle cx="233.97" cy="155.78" r="1.21" style="fill:#407BFF"></circle><path d="M231.15,159.2a1.21,1.21,0,1,1-1.21-1.21A1.21,1.21,0,0,1,231.15,159.2Z" style="fill:#407BFF"></path><path d="M234.88,160a1.21,1.21,0,1,1-1.21-1.21A1.21,1.21,0,0,1,234.88,160Z" style="fill:#407BFF"></path><path d="M227.34,157a1.21,1.21,0,1,1-1.21-1.21A1.21,1.21,0,0,1,227.34,157Z" style="fill:#407BFF"></path><circle cx="227.34" cy="160.56" r="1.21" style="fill:#407BFF"></circle><path d="M234,157.16a4,4,0,0,0,1.7-2.74c.33-2,1.14-.66.63.39a4.72,4.72,0,0,0,1.53-2.29c.39-1.44.78-.07,0,1.44,0,0,1.89-2.68,2.41-1.77s-2.35,3-2.35,3,1.05-.26.92.33-2.75,1.24-4.45,2.22Z" style="fill:#407BFF"></path><path d="M234,157.16a4,4,0,0,0,1.7-2.74c.33-2,1.14-.66.63.39a4.72,4.72,0,0,0,1.53-2.29c.39-1.44.78-.07,0,1.44,0,0,1.89-2.68,2.41-1.77s-2.35,3-2.35,3,1.05-.26.92.33-2.75,1.24-4.45,2.22Z" style="opacity:0.30000000000000004;isolation:isolate"></path><path d="M226.37,163.13s5.1-5,6.41-6.93,3.33,1,3.4,2.16-6.41,5.75-8.63,6.47S226.37,163.13,226.37,163.13Z" style="fill:#407BFF"></path><path d="M226.37,163.13s5.1-5,6.41-6.93,3.33,1,3.4,2.16-6.41,5.75-8.63,6.47S226.37,163.13,226.37,163.13Z" style="fill:#fff;opacity:0.30000000000000004;isolation:isolate"></path><path d="M221.76,156.66s.73-3.72-1.95-5.56l-.66,1.38s2.39,2.09,2.11,4.51Z" style="fill:#407BFF"></path><path d="M221.76,156.66s.73-3.72-1.95-5.56l-.66,1.38s2.39,2.09,2.11,4.51Z" style="opacity:0.30000000000000004;isolation:isolate"></path><path d="M221.51,156.33a3.21,3.21,0,0,1,3.05-1.5c2.11.2,4.07,6.93,1.06,9.61s-4.11.57-4.11.57.34,2.28-3,.79-4.16-6.5-1.61-9.13S221.51,156.33,221.51,156.33Z" style="fill:#407BFF"></path><path d="M221.51,156.33a3.21,3.21,0,0,1,3.05-1.5c2.11.2,4.07,6.93,1.06,9.61s-4.11.57-4.11.57.34,2.28-3,.79-4.16-6.5-1.61-9.13S221.51,156.33,221.51,156.33Z" style="fill:#fff;opacity:0.2;isolation:isolate"></path><path d="M220.13,174.42h18.11a15,15,0,0,0,6-12v-1.27H214.15v1.27A15,15,0,0,0,220.13,174.42Z" style="fill:#263238"></path><rect x="219.81" y="174.42" width="18.76" height="1.31" style="fill:#263238"></rect></g><g id="freepik--Character--inject-31"><path d="M147.81,160.83s-3.4,16.89-9.73,23.24-27.09,13.48-34,7.74c0,0,2.77,0,6.33-3.47,0,0-5.54,3.36-11.08,1.44s-7.52-8-7.52-8,1.58,1.46,6.33,0,5.54-6.81,10.49-7.69c0,0-6.63.36-9.3,4.22,0,0-1.19-8,8.31-12.08s8.89-3.12,10-9.74S126.45,144,137,145.24,147.81,160.83,147.81,160.83Z" style="fill:#263238"></path><path d="M137.44,182.82s-19.79.62-26.91,9.06-3.43,44.57-19,54.07S70.7,266.16,70.7,266.16s11.34-9.4,20-5.45,21.34,9.13,30.45,3.64,21.38-8.91,25.26-6.27,16-5.28,20-3.17a14.5,14.5,0,0,1,5.51,4.75s3.19-9.23-2.08-16.88-8.87-18.46-5.23-29.54S166.21,179,137.44,182.82Z" style="fill:#407BFF"></path><path d="M70.71,266.14h0l0,0A0,0,0,0,1,70.71,266.14Z" style="fill:#fff;opacity:0.6000000000000001;isolation:isolate"></path><path d="M172,259.66a14.5,14.5,0,0,0-5.51-4.75c-4-2.11-16.09,5.8-20,3.17s-16.15.79-25.26,6.27-21.75.32-30.45-3.64c-8.49-3.85-19.47,5-20,5.43,0,0,0,0,0,0h0c.35-.7,5.79-11,20.81-20.17,15.56-9.5,11.87-45.63,19-54.07s26.91-9.06,26.91-9.06c15.29-2,23,3.57,26.39,10.92,3,6.47,2.52,14.31.81,19.5-3.64,11.08,0,21.89,5.23,29.54S172,259.66,172,259.66Z" style="fill:#fff;opacity:0.6000000000000001;isolation:isolate"></path><path d="M172,259.66a14.5,14.5,0,0,0-5.51-4.75c-4-2.11-16.09,5.8-20,3.17s-16.15.79-25.26,6.27-21.75.32-30.45-3.64c-8.49-3.85-19.47,5-20,5.43l0,0a0,0,0,0,1,0,0h0c.33-.56,4.66-7.49,18.5-13,14.44-5.73,22.79-20.85,21.36-39.95s2.84-25.74,11.21-24.84c5.72.61,28.29,3.58,42,5.4,3,6.47,2.52,14.31.81,19.5-3.64,11.08,0,21.89,5.23,29.54S172,259.66,172,259.66Z" style="opacity:0.2;isolation:isolate"></path><polygon points="185.86 399.46 179.55 400.57 176.97 391.97 174.61 384.08 181.88 381.54 183.99 391.02 185.86 399.46" style="fill:#e4897b"></polygon><polygon points="184.03 391.22 177 392.14 174.62 384.16 181.89 381.58 184.03 391.22" style="opacity:0.2;isolation:isolate"></polygon><polygon points="143.75 402.36 137.35 402.36 136.29 393.34 135.34 385.11 142.95 383.85 143.38 393.64 143.75 402.36" style="fill:#e4897b"></polygon><polygon points="143.38 393.73 136.29 393.42 135.34 385.14 142.95 383.86 143.38 393.73" style="opacity:0.2;isolation:isolate"></polygon><path d="M152.43,415.05a10.73,10.73,0,0,0-3.42-1.86h0s-3.72-3.69-5.51-14.8l-4.87-1.27a4.15,4.15,0,0,0-4.43,1.73,2.53,2.53,0,0,0-.31.64,29.33,29.33,0,0,0-.52,3.61c-.49,3.76-.07,12.2-.07,12.2h.88l.35-7.66c.13-2.6,2.12.45,2.69,3.25s1.78,5.78,7.48,5.92C151.35,416.94,154.11,416.68,152.43,415.05Z" style="fill:#263238"></path><path d="M194.93,414.3a10.73,10.73,0,0,0-3.42-1.86h0s-3.72-3.69-5.51-14.8l-4.87-1.27a4.15,4.15,0,0,0-4.43,1.73,2.53,2.53,0,0,0-.31.64,29.33,29.33,0,0,0-.52,3.61c-.49,3.76-.07,12.2-.07,12.2h.88l.35-7.66c.13-2.6,2.12.45,2.69,3.25s1.78,5.78,7.48,5.92C193.85,416.19,196.61,415.93,194.93,414.3Z" style="fill:#263238"></path><path d="M184.62,386.21,174.25,388c-10.46-26.07-17.91-47.83-23.16-65.89-2.83-9.74-5.19-18.41-6.89-26.1l.32,28.38v63.93H134.3c-25.62-122-7.46-149.8-7.46-149.8l30.64-5.1a138.33,138.33,0,0,1,2.57,17.21l1.38,10.17,12,61.87Z" style="fill:#407BFF"></path><g style="opacity:0.6000000000000001;isolation:isolate"><path d="M184.62,386.21,174.25,388c-10.46-26.07-17.91-47.83-23.16-65.89-2.83-9.74-5.19-18.41-6.89-26.1l.32,28.38v63.93H134.3c-25.62-122-7.46-149.8-7.46-149.8l30.64-5.1a138.33,138.33,0,0,1,2.57,17.21l1.38,10.17,12,61.87Z" style="fill:#fff"></path></g><path d="M151.09,322.15c-2.83-9.74-5-18.41-6.73-26.1a241.51,241.51,0,0,1,2-27.21S150.82,303.94,151.09,322.15Z" style="opacity:0.2;isolation:isolate"></path><polygon points="126.81 233.81 126.81 238.38 158.13 235.98 158.13 230.57 126.81 233.81" style="fill:#263238"></polygon><polygon points="151.09 236.87 144.41 237.48 143.95 232.3 150.64 231.69 151.09 236.87" style="fill:#fff"></polygon><polygon points="137.79 239.78 136.27 239.85 135.88 231.96 137.39 231.88 137.79 239.78" style="fill:#407BFF"></polygon><polygon points="137.79 239.78 136.27 239.85 135.88 231.96 137.39 231.88 137.79 239.78" style="fill:#fff;opacity:0.6000000000000001"></polygon><polygon points="156.47 237.68 154.96 237.76 154.56 229.86 156.08 229.78 156.47 237.68" style="fill:#407BFF"></polygon><polygon points="156.47 237.68 154.96 237.76 154.56 229.86 156.08 229.78 156.47 237.68" style="fill:#fff;opacity:0.6000000000000001"></polygon><path d="M120.75,201.11c1.2,3.87,2.14,7.21,2.89,10.2,2.34,9.26,2.44,14.73,2.93,22.49l0,.08,32-2.84c1.25-22,.34-33.59-.23-39.64-.62-6.45-1.62-6.69-1.62-6.69s-7-.68-13.07-.63a100.07,100.07,0,0,0-14,1.47,92.12,92.12,0,0,0-13,3.14c.71,2,1.35,3.95,1.95,5.76C119.39,196.83,120.1,199.05,120.75,201.11Z" style="fill:#407BFF"></path><path d="M120.75,201.11c1.2,3.87,2.14,7.21,2.89,10.2,2.34,9.26,2.44,14.73,2.93,22.49l0,.08,32-2.84c1.25-22,.34-33.59-.23-39.64-.62-6.45-1.62-6.69-1.62-6.69s-7-.68-13.07-.63a100.07,100.07,0,0,0-14,1.47,92.12,92.12,0,0,0-13,3.14c.71,2,1.35,3.95,1.95,5.76C119.39,196.83,120.1,199.05,120.75,201.11Z" style="fill:#fff;opacity:0.1;isolation:isolate"></path><path d="M143.3,185.42a6.46,6.46,0,0,0-1-.41c-.72-.57-1.6-1.94-1.56-5.28a27.25,27.25,0,0,1,.37-3.9l-9.28-1.73s3.17,6.24.53,10.87c-.91.41-1.45,1-1.35,1.73.69,5.36,11.22,6.89,11.22,6.89S148.89,188.49,143.3,185.42Z" style="fill:#ebb376"></path><path d="M141.16,175.83a27.25,27.25,0,0,0-.37,3.9c-6.26,0-8.91-5.63-8.91-5.63Z" style="opacity:0.2;isolation:isolate"></path><path d="M137,145.24s10.87-1.38,12.87,7.37a13.49,13.49,0,0,1-4.75,13.63Z" style="fill:#263238"></path><path d="M136,149.91c8.06-.45,10.89,3.73,11.94,12,1.3,10.34-.59,17.84-10.79,16.18C123.32,175.82,122.65,150.64,136,149.91Z" style="fill:#ebb376"></path><path d="M142.73,161.75a17,17,0,0,0,2.53,3.21,2.23,2.23,0,0,1-2.07,1Z" style="fill:#d58745"></path><path d="M137.76,161.36c.05.66-.26,1.22-.7,1.26s-.84-.48-.89-1.14.26-1.22.7-1.26S137.71,160.7,137.76,161.36Z" style="fill:#263238"></path><path d="M136.69,160.27l1.39-.68S137.46,160.86,136.69,160.27Z" style="fill:#263238"></path><path d="M146,160.58c.05.66-.26,1.22-.7,1.26s-.84-.48-.89-1.14.26-1.22.7-1.26S145.92,159.91,146,160.58Z" style="fill:#263238"></path><path d="M144.9,159.49l1.39-.68S145.67,160.08,144.9,159.49Z" style="fill:#263238"></path><path d="M137.38,155.8a4.19,4.19,0,0,0-3.43,1.4" style="fill:none;stroke:#263238;stroke-linecap:round;stroke-linejoin:round;stroke-width:0.686238px"></path><path d="M143.22,155.13a3.76,3.76,0,0,1,3.24.49" style="fill:none;stroke:#263238;stroke-linecap:round;stroke-linejoin:round;stroke-width:0.686238px"></path><path d="M128,164s3.4-6.83,2.55-11.91c0,0,15.62-7.4,17.29,8.77,0,0,.77-14.48-13.1-14s-12.7,20.7-5.22,26.35C129.49,173.14,125.86,168.24,128,164Z" style="fill:#263238"></path><path d="M129.38,165.6a3.55,3.55,0,0,0-4-3c-2.48.41-3.39,5.6,2.89,6.49C129.18,169.2,129.64,168.3,129.38,165.6Z" style="fill:#ebb376"></path><path d="M136.89,168.86a6.52,6.52,0,0,0,4.63,1.88" style="fill:none;stroke:#263238;stroke-linecap:round;stroke-linejoin:round;stroke-width:0.686238px"></path><path d="M126.48,163.87s.89-1.5,4.57,0,9.25,2,12,.84,3.59.48,5.28-.61c0,0,1.66,12.75-5.11,14.72s-15.86-5.38-16.84-10.81c0,0,1.93,4.53,5.53,6.09,0,0,.81-6.35,0-8.29C131.88,165.81,129.38,163.24,126.48,163.87Z" style="fill:#407BFF"></path><path d="M126.48,163.87s.89-1.5,4.57,0,9.25,2,12,.84,3.59.48,5.28-.61c0,0,1.66,12.75-5.11,14.72s-15.86-5.38-16.84-10.81c0,0,1.93,4.53,5.53,6.09,0,0,.81-6.35,0-8.29C131.88,165.81,129.38,163.24,126.48,163.87Z" style="fill:#fff;opacity:0.6000000000000001;isolation:isolate"></path><path d="M142,148.43A8.62,8.62,0,0,1,137,158.5a10.69,10.69,0,0,0,4.2-7.69s-4.19,9.61-12.9,8S127.59,140.33,142,148.43Z" style="fill:#263238"></path><path d="M156.94,184.63c4.65.73,6.74,3.71,12.44,16.73,4.37,10,2.55,13.18-.92,14.68-8.77,3.81-28.5,1.18-28.5,1.18l19.24-11.8s-3.15-11-3.15-13.14A25.65,25.65,0,0,1,156.94,184.63Z" style="fill:#407BFF"></path><path d="M164.43,206.17a20.22,20.22,0,0,1-10.36,11.93,118.32,118.32,0,0,1-14.11-.88l19.24-11.8s-.77-2.65-1.53-5.58C161,204.82,162.68,202.67,164.43,206.17Z" style="opacity:0.2;isolation:isolate"></path><path d="M116.58,188.63c-9.64,4.07,7.8,31.1,17.58,34.35S164.64,206,164.64,206a25.52,25.52,0,0,0-9.89-.06c-11.94,2.69-15.26,4.41-17.69,1.9S123.43,185.74,116.58,188.63Z" style="fill:#407BFF"></path><path d="M144.33,208.47s-5.85-3.09-7.4-3.59-4.8,2.14-5,2.8,6.77,4.34,7.28,4.15S144.33,208.47,144.33,208.47Z" style="fill:#ebb376"></path><path d="M143.35,183.21a36,36,0,0,1,5.17,5c2.49,3,10.65,1.43,8.21-3.65C154.82,180.64,143.35,183.21,143.35,183.21Z" style="fill:#407BFF"></path><path d="M143.35,183.21a36,36,0,0,1,5.17,5c2.49,3,10.65,1.43,8.21-3.65C154.82,180.64,143.35,183.21,143.35,183.21Z" style="fill:#fff;opacity:0.6000000000000001;isolation:isolate"></path><path d="M116.58,188.63c3.63-1,5.78.51,8.55,2.29s8.14,1.46,4.32-6.29c0,0-1-.23-5.94.85S116.58,188.63,116.58,188.63Z" style="fill:#407BFF"></path><path d="M116.58,188.63c3.63-1,5.78.51,8.55,2.29s8.14,1.46,4.32-6.29c0,0-1-.23-5.94.85S116.58,188.63,116.58,188.63Z" style="fill:#fff;opacity:0.6000000000000001;isolation:isolate"></path><path d="M129.45,188.89c0,.71-.82,1.29-1.84,1.29s-1.84-.58-1.84-1.29.83-1.29,1.84-1.29S129.45,188.18,129.45,188.89Z" style="fill:#407BFF"></path><path d="M154.67,186.57c0,.71-.82,1.29-1.84,1.29s-1.84-.58-1.84-1.29.83-1.3,1.84-1.3S154.67,185.85,154.67,186.57Z" style="fill:#407BFF"></path></g></svg>