<svg xmlns="http://www.w3.org/2000/svg" viewBox="0 0 500 500"><g id="freepik--background-complete--inject-112"><rect y="382.4" width="500" height="0.25" style="fill:#ebebeb"></rect><rect x="416.78" y="398.49" width="33.12" height="0.25" style="fill:#ebebeb"></rect><rect x="322.53" y="401.21" width="8.69" height="0.25" style="fill:#ebebeb"></rect><rect x="396.59" y="389.21" width="19.19" height="0.25" style="fill:#ebebeb"></rect><rect x="52.46" y="390.89" width="43.19" height="0.25" style="fill:#ebebeb"></rect><rect x="104.56" y="390.89" width="6.33" height="0.25" style="fill:#ebebeb"></rect><rect x="131.47" y="395.11" width="93.68" height="0.25" style="fill:#ebebeb"></rect><path d="M237,337.8H43.91a5.71,5.71,0,0,1-5.7-5.71V60.66A5.71,5.71,0,0,1,43.91,55H237a5.71,5.71,0,0,1,5.71,5.71V332.09A5.71,5.71,0,0,1,237,337.8ZM43.91,55.2a5.46,5.46,0,0,0-5.45,5.46V332.09a5.46,5.46,0,0,0,5.45,5.46H237a5.47,5.47,0,0,0,5.46-5.46V60.66A5.47,5.47,0,0,0,237,55.2Z" style="fill:#ebebeb"></path><path d="M453.31,337.8H260.21a5.72,5.72,0,0,1-5.71-5.71V60.66A5.72,5.72,0,0,1,260.21,55h193.1A5.71,5.71,0,0,1,459,60.66V332.09A5.71,5.71,0,0,1,453.31,337.8ZM260.21,55.2a5.47,5.47,0,0,0-5.46,5.46V332.09a5.47,5.47,0,0,0,5.46,5.46h193.1a5.47,5.47,0,0,0,5.46-5.46V60.66a5.47,5.47,0,0,0-5.46-5.46Z" style="fill:#ebebeb"></path><rect x="259.67" y="167.77" width="146.47" height="214.75" transform="translate(665.8 550.28) rotate(180)" style="fill:#fafafa"></rect><rect x="264.84" y="174.53" width="136.12" height="39.66" transform="translate(665.8 388.71) rotate(180)" style="fill:#e6e6e6"></rect><rect x="393.23" y="180.95" width="7.73" height="33.24" transform="translate(794.19 395.13) rotate(180)" style="fill:#f0f0f0"></rect><rect x="355.84" y="180.95" width="7.73" height="33.24" transform="translate(719.41 395.13) rotate(180)" style="fill:#f0f0f0"></rect><rect x="310.51" y="180.53" width="7.73" height="33.24" transform="translate(590.71 444.83) rotate(-170.22)" style="fill:#f0f0f0"></rect><rect x="383.65" y="185.33" width="7.73" height="28.86" transform="translate(775.02 399.51) rotate(180)" style="fill:#f0f0f0"></rect><rect x="365.87" y="185.33" width="7.73" height="28.86" transform="translate(739.48 399.51) rotate(180)" style="fill:#f0f0f0"></rect><rect x="321.01" y="185.33" width="7.73" height="28.86" transform="translate(649.76 399.51) rotate(180)" style="fill:#f0f0f0"></rect><rect x="342.46" y="184.83" width="7.73" height="28.86" transform="translate(641.19 468.9) rotate(-167.47)" style="fill:#f0f0f0"></rect><rect x="376.96" y="179.3" width="3.87" height="34.89" transform="translate(757.79 393.48) rotate(180)" style="fill:#f0f0f0"></rect><rect x="330.97" y="179.3" width="3.87" height="34.89" transform="translate(665.8 393.48) rotate(180)" style="fill:#f0f0f0"></rect><rect x="264.84" y="220.47" width="136.12" height="39.66" style="fill:#e6e6e6"></rect><rect x="264.84" y="226.89" width="7.73" height="33.24" style="fill:#f0f0f0"></rect><rect x="302.23" y="226.89" width="7.73" height="33.24" style="fill:#f0f0f0"></rect><rect x="347.56" y="226.47" width="7.73" height="33.24" transform="translate(-36.18 63.22) rotate(-9.78)" style="fill:#f0f0f0"></rect><rect x="274.42" y="231.27" width="7.73" height="28.86" style="fill:#f0f0f0"></rect><rect x="292.2" y="231.27" width="7.73" height="28.86" style="fill:#f0f0f0"></rect><rect x="337.06" y="231.27" width="7.73" height="28.86" style="fill:#f0f0f0"></rect><rect x="315.61" y="230.77" width="7.73" height="28.86" transform="translate(-45.58 75.13) rotate(-12.53)" style="fill:#f0f0f0"></rect><rect x="284.98" y="225.24" width="3.87" height="34.89" style="fill:#f0f0f0"></rect><rect x="330.97" y="225.24" width="3.87" height="34.89" style="fill:#f0f0f0"></rect><rect x="393.23" y="226.89" width="7.73" height="33.24" transform="translate(794.19 487.02) rotate(180)" style="fill:#f0f0f0"></rect><rect x="383.65" y="231.27" width="7.73" height="28.86" transform="translate(775.02 491.4) rotate(180)" style="fill:#f0f0f0"></rect><rect x="365.87" y="231.27" width="7.73" height="28.86" transform="translate(739.48 491.4) rotate(180)" style="fill:#f0f0f0"></rect><rect x="376.96" y="225.24" width="3.87" height="34.89" transform="translate(757.79 485.37) rotate(180)" style="fill:#f0f0f0"></rect><rect x="264.84" y="266.41" width="136.12" height="39.66" transform="translate(665.8 572.48) rotate(180)" style="fill:#e6e6e6"></rect><rect x="315.1" y="272.83" width="7.73" height="33.24" transform="translate(637.93 578.9) rotate(180)" style="fill:#f0f0f0"></rect><rect x="269.78" y="272.41" width="7.73" height="33.24" transform="translate(494.22 620.34) rotate(-170.22)" style="fill:#f0f0f0"></rect><rect x="342.91" y="277.21" width="7.73" height="28.86" transform="translate(693.55 583.28) rotate(180)" style="fill:#f0f0f0"></rect><rect x="325.14" y="277.21" width="7.73" height="28.86" transform="translate(658 583.28) rotate(180)" style="fill:#f0f0f0"></rect><rect x="280.28" y="277.21" width="7.73" height="28.86" transform="translate(568.28 583.28) rotate(180)" style="fill:#f0f0f0"></rect><rect x="301.72" y="276.71" width="7.73" height="28.86" transform="translate(540.75 641.64) rotate(-167.47)" style="fill:#f0f0f0"></rect><rect x="336.22" y="271.18" width="3.87" height="34.89" transform="translate(676.31 577.25) rotate(180)" style="fill:#f0f0f0"></rect><rect x="290.23" y="271.18" width="3.87" height="34.89" transform="translate(584.33 577.25) rotate(180)" style="fill:#f0f0f0"></rect><rect x="358.73" y="272.41" width="7.73" height="33.24" transform="translate(670.85 635.45) rotate(-170.22)" style="fill:#f0f0f0"></rect><rect x="369.23" y="277.21" width="7.73" height="28.86" transform="translate(746.2 583.28) rotate(180)" style="fill:#f0f0f0"></rect><rect x="390.68" y="276.71" width="7.73" height="28.86" transform="translate(716.55 660.94) rotate(-167.47)" style="fill:#f0f0f0"></rect><rect x="379.19" y="271.18" width="3.87" height="34.89" transform="translate(762.24 577.25) rotate(180)" style="fill:#f0f0f0"></rect><rect x="406.14" y="167.77" width="25.27" height="215.31" style="fill:#f0f0f0"></rect><circle cx="341.28" cy="124" r="17.21" transform="translate(-12.59 42.63) rotate(-7.02)" style="fill:#e0e0e0"></circle><circle cx="341.28" cy="124" r="14.63" transform="translate(-10.56 34.23) rotate(-5.65)" style="fill:#f0f0f0"></circle><polyline points="341.97 113.96 341.97 124.19 348.75 120.35" style="fill:#f0f0f0"></polyline><path d="M342,125.19a1,1,0,0,1-.5-.14,1,1,0,0,1-.5-.86V114a1,1,0,1,1,2,0v8.51l5.29-3a1,1,0,0,1,1.36.38,1,1,0,0,1-.37,1.36l-6.78,3.84A1,1,0,0,1,342,125.19Z" style="fill:#e0e0e0"></path><path d="M193,144.53s1.35-8.86-5.12-14.54-5.89-9.06-4.05-9.5,3.56,5.24,6.4,6.8c0,0,.09-8.1-2.8-11.08s-4.4-10.67-1.65-10.81,3,4.57,3.59,7.9,3.63,8,3.63,8,.6-7.24,2.47-10.23-3.11-9.8-1.19-12.78,5.32,2.7,5,9.09-4.55,13.21-3.55,19.89c0,0,1.88-4.69,3.57-5.11s3.39-3.53,4.53-4.68,2.55,2.83,0,6.52-9.1,13.58-8.1,21.57Z" style="fill:#e6e6e6"></path><path d="M189.16,140.5,187,153.79a6.75,6.75,0,0,0,6.67,7.81H196a6.75,6.75,0,0,0,6.67-7.81l-2.12-13.29Z" style="fill:#e6e6e6"></path><rect x="71.55" y="156.7" width="149.63" height="7.69" style="fill:#e0e0e0"></rect><rect x="78.43" y="128.36" width="6.59" height="28.34" style="fill:#ebebeb"></rect><rect x="110.31" y="128.36" width="6.59" height="28.34" style="fill:#ebebeb"></rect><rect x="148.95" y="128.01" width="6.59" height="28.34" transform="translate(-21.94 27.92) rotate(-9.78)" style="fill:#ebebeb"></rect><rect x="86.6" y="132.1" width="6.59" height="24.6" style="fill:#ebebeb"></rect><rect x="101.75" y="132.1" width="6.59" height="24.6" style="fill:#ebebeb"></rect><rect x="140" y="132.1" width="6.59" height="24.6" style="fill:#ebebeb"></rect><rect x="121.71" y="131.68" width="6.59" height="24.6" transform="translate(-28.25 30.54) rotate(-12.53)" style="fill:#ebebeb"></rect><rect x="95.6" y="126.96" width="3.3" height="29.75" style="fill:#ebebeb"></rect><rect x="134.81" y="126.96" width="3.3" height="29.75" style="fill:#ebebeb"></rect><rect x="71.55" y="214.09" width="149.63" height="7.69" transform="translate(292.72 435.88) rotate(180)" style="fill:#e0e0e0"></rect><rect x="207.7" y="185.76" width="6.59" height="28.34" transform="translate(421.98 399.85) rotate(180)" style="fill:#ebebeb"></rect><rect x="175.82" y="185.76" width="6.59" height="28.34" transform="translate(358.23 399.85) rotate(180)" style="fill:#ebebeb"></rect><rect x="137.18" y="185.4" width="6.59" height="28.34" transform="translate(245.01 420.1) rotate(-170.22)" style="fill:#ebebeb"></rect><rect x="199.53" y="189.49" width="6.59" height="24.6" transform="translate(405.65 403.58) rotate(180)" style="fill:#ebebeb"></rect><rect x="184.38" y="189.49" width="6.59" height="24.6" transform="translate(375.34 403.58) rotate(180)" style="fill:#ebebeb"></rect><rect x="146.13" y="189.49" width="6.59" height="24.6" transform="translate(298.85 403.58) rotate(180)" style="fill:#ebebeb"></rect><rect x="164.42" y="189.07" width="6.59" height="24.6" transform="translate(287.75 434.32) rotate(-167.47)" style="fill:#ebebeb"></rect><rect x="193.83" y="184.35" width="3.3" height="29.75" transform="translate(390.95 398.44) rotate(180)" style="fill:#ebebeb"></rect><rect x="154.62" y="184.35" width="3.3" height="29.75" transform="translate(312.53 398.44) rotate(180)" style="fill:#ebebeb"></rect><rect x="85.9" y="191.66" width="32.12" height="22.17" transform="translate(203.93 405.5) rotate(180)" style="fill:#ebebeb"></rect></g><g id="freepik--Shadow--inject-112"><ellipse id="freepik--path--inject-112" cx="250" cy="416.24" rx="193.89" ry="11.32" style="fill:#f5f5f5"></ellipse></g><g id="freepik--Plant--inject-112"><path d="M123.19,389.35s1.19-8.74,6.78-9.7,3.91-5.18,5.36-6.82,5.26,3.19,2,7.87-.59,3.21-2,7.56S122.68,396.6,123.19,389.35Z" style="fill:#263238"></path><path d="M125,395.44a.51.51,0,0,1-.17,0,.5.5,0,0,1-.29-.65c0-.09,3.46-9.26.13-23.24a58.77,58.77,0,0,0-4.33-11.63c-3.23-7-6-13.1-1.88-24.44,1.28-3.5,2.6-6.76,3.89-9.91,4.72-11.62,8.46-20.79,4.53-29.26a.49.49,0,0,1,.24-.66.5.5,0,0,1,.67.24c4.11,8.86.3,18.21-4.52,30.05-1.28,3.15-2.6,6.4-3.87,9.88-4,11-1.42,16.57,1.85,23.68a60.73,60.73,0,0,1,4.4,11.82c3.4,14.3,0,23.45-.18,23.83A.5.5,0,0,1,125,395.44Z" style="fill:#263238"></path><path d="M126.65,393.28s3.61-5.44-1.61-8.24-6.26-.55-9.48-2.56-5.68-6.9-6.23-3.77,3.18,4.9,1.86,6.33S120,395.74,126.65,393.28Z" style="fill:#263238"></path><path d="M129.26,300.49s2.66-10.95-5.34-10.54S125.52,299.64,129.26,300.49Z" style="fill:#263238"></path><path d="M123,309.24s-3.16-9.51-8.66-7S117.36,309.87,123,309.24Z" style="fill:#263238"></path><path d="M132.67,309.31s-1.48-7.67,4.52-8.31S141.06,307.38,132.67,309.31Z" style="fill:#263238"></path><path d="M129.93,325.42s7.5-7.84,10.83-2.72S135.19,329.66,129.93,325.42Z" style="fill:#263238"></path><path d="M115.56,325.29s-2.48-11.82-8.7-7.55S110,326.94,115.56,325.29Z" style="fill:#263238"></path><path d="M111.19,342.86s3.85-12.46-5-10.38S104.65,340.43,111.19,342.86Z" style="fill:#263238"></path><path d="M125.26,346.06s6.83-9.5,12.83-7.14S140.08,350.5,125.26,346.06Z" style="fill:#263238"></path><path d="M120,366.32s-7.58-13.77-12.91-8.49S111.68,369.55,120,366.32Z" style="fill:#263238"></path><path d="M129.26,364.74s-2.58-10.95,3.86-10.57S138.43,361.47,129.26,364.74Z" style="fill:#263238"></path><g style="isolation:isolate;opacity:0.2"><path d="M129.26,300.49s2.66-10.95-5.34-10.54S125.52,299.64,129.26,300.49Z" style="fill:#fff"></path><path d="M123,309.24s-3.16-9.51-8.66-7S117.36,309.87,123,309.24Z" style="fill:#fff"></path><path d="M132.67,309.31s-1.48-7.67,4.52-8.31S141.06,307.38,132.67,309.31Z" style="fill:#fff"></path><path d="M129.93,325.42s7.5-7.84,10.83-2.72S135.19,329.66,129.93,325.42Z" style="fill:#fff"></path><path d="M115.56,325.29s-2.48-11.82-8.7-7.55S110,326.94,115.56,325.29Z" style="fill:#fff"></path><path d="M111.19,342.86s3.85-12.46-5-10.38S104.65,340.43,111.19,342.86Z" style="fill:#fff"></path><path d="M125.26,346.06s6.83-9.5,12.83-7.14S140.08,350.5,125.26,346.06Z" style="fill:#fff"></path><path d="M120,366.32s-7.58-13.77-12.91-8.49S111.68,369.55,120,366.32Z" style="fill:#fff"></path><path d="M129.26,364.74s-2.58-10.95,3.86-10.57S138.43,361.47,129.26,364.74Z" style="fill:#fff"></path></g><path d="M127,315.5h-.1a.5.5,0,0,1-.32-.23c0-.05-3.54-5.64-5.93-6.82a.49.49,0,0,1-.22-.67.5.5,0,0,1,.67-.23c2.24,1.12,5.13,5.36,6,6.75a28.37,28.37,0,0,0,6.94-7.92.5.5,0,0,1,.87.49,28.06,28.06,0,0,1-7.67,8.55A.47.47,0,0,1,127,315.5Z" style="fill:#263238"></path><path d="M120.82,330.91h0a.51.51,0,0,1-.35-.21c0-.06-4.35-6.12-9.45-8.6a.51.51,0,0,1-.23-.67.5.5,0,0,1,.67-.23c4.56,2.22,8.38,7,9.5,8.48a27.85,27.85,0,0,1,15.14-6,.49.49,0,0,1,.52.48.5.5,0,0,1-.47.52c-.09,0-8.66.49-14.94,6.07A.48.48,0,0,1,120.82,330.91Z" style="fill:#263238"></path><path d="M117.73,350.87a.6.6,0,0,1-.28-.08c-5.14-3.5-9.61-12.83-9.8-13.22a.5.5,0,0,1,.24-.67.49.49,0,0,1,.66.24c0,.09,4.38,9.13,9.19,12.62,1.67-1.12,10-6.49,16.68-7.16a.48.48,0,0,1,.54.45.5.5,0,0,1-.44.55c-7.06.7-16.41,7.12-16.5,7.18A.52.52,0,0,1,117.73,350.87Z" style="fill:#263238"></path><path d="M125.05,370.67a.5.5,0,0,1-.39-.18,21.25,21.25,0,0,0-11.09-6,.5.5,0,1,1,.21-1,22.39,22.39,0,0,1,11.33,6c3.25-2.67,7.06-11.77,7.1-11.86a.49.49,0,0,1,.65-.27.49.49,0,0,1,.27.65c-.17.41-4.23,10.13-7.8,12.56A.51.51,0,0,1,125.05,370.67Z" style="fill:#263238"></path><path d="M126.09,392s3.1-4.93,6.6-5.63,5-4.73,6.3-2.31S136.72,394.5,126.09,392Z" style="fill:#263238"></path><polygon points="145.62 390.28 144.24 398.63 144.06 399.74 143.49 403.24 143.08 405.72 142.81 407.33 141.48 415.45 107.25 415.45 105.92 407.33 105.66 405.72 105.24 403.24 104.67 399.74 104.49 398.63 103.12 390.28 145.62 390.28" style="fill:#407BFF"></polygon></g><g id="freepik--speech-bubble--inject-112"><path d="M269.12,99.22H240.39a8.85,8.85,0,0,0-8.85,8.84v25a8.85,8.85,0,0,0,8.85,8.84h18.36l6,7.9v-7.9h4.37a8.85,8.85,0,0,0,8.85-8.84v-25A8.85,8.85,0,0,0,269.12,99.22Z" style="fill:#407BFF"></path><path d="M269.12,99.22H240.39a8.85,8.85,0,0,0-8.85,8.84v25a8.85,8.85,0,0,0,8.85,8.84h18.36l6,7.9v-7.9h4.37a8.85,8.85,0,0,0,8.85-8.84v-25A8.85,8.85,0,0,0,269.12,99.22Z" style="fill:#fff;opacity:0.5"></path><circle cx="254.75" cy="120.46" r="14.26" style="fill:#407BFF"></circle><path d="M253.26,126.82a1.28,1.28,0,0,1-1-.46l-5.59-6.59a1.31,1.31,0,1,1,2-1.69l4.6,5.41,7.59-8.94a1.31,1.31,0,0,1,2,1.69l-8.58,10.12A1.3,1.3,0,0,1,253.26,126.82Z" style="fill:#fff"></path></g><g id="freepik--character-2--inject-112"><path d="M283.64,203.6a163.37,163.37,0,0,1-5,17c-2.21,6-4.14,11.41-8.12,16.87-5.67,8-25.87,10.48-35.25,11.52a2.57,2.57,0,0,1-1-5c5.43-1.7,10.91-3.46,16.17-5.38a54.41,54.41,0,0,0,10.7-4.93,5.53,5.53,0,0,0,1.78-1.82c5.32-9.3,7.76-20.49,10.7-30.76,1.9-6.46,11.37-4.12,10,2.5Z" style="fill:#d9877c"></path><path d="M234.42,244.11l-8.13-.16,3.72,8.22s7.27-.29,7-4Z" style="fill:#d9877c"></path><polygon points="219.32 248 224.92 253.98 230.01 252.17 226.29 243.94 219.32 248" style="fill:#d9877c"></polygon><path d="M274.32,198.75c-4.7,3.66-11.61,31.91-11.61,31.91l-20.16,9.91,4.09,8.24s20.8-4.39,23.29-6.69,11.88-25.66,11.88-25.66Z" style="fill:#407BFF"></path><path d="M281.81,216.46l-.6,1.47c-.64,1.58-1.75,4.28-3,7.33-2.92,6.88-6.77,15.51-8.24,16.86-2.49,2.3-23.29,6.7-23.29,6.7l-4.09-8.25,20.16-9.91s6.91-28.24,11.61-31.91Z" style="fill:#fff;opacity:0.7000000000000001"></path><path d="M281.21,217.93c-.64,1.58-1.75,4.28-3,7.33a59.83,59.83,0,0,1-.88-17.69C278.78,209.52,280.16,213.56,281.21,217.93Z" style="opacity:0.1"></path><path d="M338.55,260.88s-22.4-2.39-46.88,11.92c0,0,1.86-5.24-.48-15.52-3.73-16.42-12.41-41.42-13.13-46.15-1.17-7.7,39.51-14.38,39.51-14.38s5.93,21.87,11.47,34.64S339.31,258,338.55,260.88Z" style="fill:#407BFF"></path><path d="M338.55,260.88s-22.4-2.39-46.88,11.92c0,0,1.86-5.24-.48-15.52-3.73-16.42-12.41-41.42-13.13-46.15-1.17-7.7,39.51-14.38,39.51-14.38s5.93,21.87,11.47,34.64S339.31,258,338.55,260.88Z" style="fill:#fff;opacity:0.5"></path><polygon points="278.26 408.18 285.52 410.24 287.25 398.93 288.18 392.88 280.92 390.82 279.68 398.93 278.26 408.18" style="fill:#b55b52"></polygon><polygon points="320.04 408.77 327.53 409.77 327.6 398.93 327.65 392.19 320.15 391.21 320.1 398.93 320.04 408.77" style="fill:#b55b52"></polygon><polygon points="320.15 391.21 320.1 398.93 327.6 398.93 327.65 392.19 320.15 391.21" style="opacity:0.2"></polygon><polygon points="279.68 398.93 287.25 398.93 288.18 392.88 280.92 390.82 279.68 398.93" style="opacity:0.2"></polygon><path d="M278.34,407.05l8.26-.22a.66.66,0,0,1,.66.49L289,414a1.09,1.09,0,0,1-1,1.37c-3,0-7.28,0-11,.07-4.38.12-7.16-.1-12.29,0-3.1.09-4.08-3-2.79-3.33,5.87-1.45,9.7-1.16,14.7-4.44A3.52,3.52,0,0,1,278.34,407.05Z" style="fill:#263238"></path><path d="M277.64,408.11h0c-1.2.27-3.36.63-4.21-.08a1,1,0,0,1-.37-.86.55.55,0,0,1,.28-.48c.9-.55,4,.91,4.34,1.08a.18.18,0,0,1,.1.18A.18.18,0,0,1,277.64,408.11ZM273.56,407l-.07,0a.21.21,0,0,0-.1.2.66.66,0,0,0,.23.56c.48.4,1.73.44,3.39.12C275.79,407.34,274.12,406.76,273.56,407Z" style="fill:#407BFF"></path><path d="M277.64,408.11h-.13c-.93-.39-2.8-2-2.69-2.82,0-.2.16-.45.65-.51a1.3,1.3,0,0,1,1,.27c1,.76,1.27,2.78,1.28,2.87a.16.16,0,0,1-.07.16S277.65,408.1,277.64,408.11Zm-2.3-2.94c-.15.06-.16.14-.16.17-.07.51,1.21,1.76,2.16,2.29a4.18,4.18,0,0,0-1.08-2.29.93.93,0,0,0-.74-.21A.6.6,0,0,0,275.34,405.17Z" style="fill:#407BFF"></path><path d="M320.34,407.05l8.25-.23a.66.66,0,0,1,.66.5L331,414a1.08,1.08,0,0,1-1,1.36c-3,0-7.29,0-11,.08-4.38.12-7.16-.1-12.29,0-3.1.08-4.08-3-2.79-3.33,5.87-1.45,9.7-1.16,14.7-4.44A3.43,3.43,0,0,1,320.34,407.05Z" style="fill:#263238"></path><path d="M319.63,408.11h0c-1.21.28-3.37.63-4.22-.08a1,1,0,0,1-.37-.85.58.58,0,0,1,.28-.49c.9-.54,4,.92,4.34,1.09a.17.17,0,0,1,.1.18A.17.17,0,0,1,319.63,408.11ZM315.55,407l-.06,0a.2.2,0,0,0-.11.19.65.65,0,0,0,.24.57c.48.4,1.72.44,3.38.12C317.78,407.34,316.11,406.76,315.55,407Z" style="fill:#407BFF"></path><path d="M319.63,408.11a.2.2,0,0,1-.13,0c-.93-.38-2.79-2-2.69-2.81,0-.2.16-.45.65-.52a1.38,1.38,0,0,1,1,.28c1,.76,1.26,2.78,1.27,2.87a.17.17,0,0,1-.06.16Zm-2.3-2.94c-.15.05-.16.13-.16.17-.07.51,1.21,1.75,2.16,2.29a4.24,4.24,0,0,0-1.08-2.3,1,1,0,0,0-.74-.2Z" style="fill:#407BFF"></path><path d="M335.48,244c4,17.21-2.83,152.57-2.83,152.57H319.49L313.85,283.8,293.13,396.62l-14.07-1C288.25,308.2,296.37,256,296.37,256l0-6.59Z" style="fill:#263238"></path><path d="M313.87,183.46a165.06,165.06,0,0,0,5.95,23.95c1.77,5.47,3.69,10.6,5.54,15.19,4.32,10.78,8.28,18.69,9.22,21.55,0,0-25.75,10.45-38.21,10.36-18.57-34.66-20.71-54.33-20.71-54.33l7.64-6.93s1.21-.62,1.83-.92a146.9,146.9,0,0,1,15.75-5.84c1-.32,2.05-.61,3.06-.89C309.11,184.21,313.87,183.46,313.87,183.46Z" style="fill:#407BFF"></path><path d="M299.49,186.61s-7.23,8.86-9.88,9.41c-1.85.39-5.2-2-5.2-2a8.09,8.09,0,0,0,2.38-2.95c1.27-2.91-.46-5.73-2.57-8.19l5.32-12.38a52.46,52.46,0,0,0,2.7,7.52h0C294,182,296.49,185.67,299.49,186.61Z" style="fill:#b55b52"></path><path d="M292.24,178h0c.23,4.85-.62,10.69-5.46,13,1.27-2.91-.46-5.73-2.57-8.19l5.32-12.38A52.46,52.46,0,0,0,292.24,178Z" style="opacity:0.2"></path><path d="M266.68,171.06c.33,3,3.13,8.11,6,4.77S266.11,166,266.68,171.06Z" style="fill:#263238"></path><path d="M287,166.31c3.35,6.51,5.64,10.15,4.36,15.23-1.92,7.64-11.43,9.3-16.67,3.91-4.71-4.85-9.39-14.67-4.69-20.77A10.09,10.09,0,0,1,287,166.31Z" style="fill:#b55b52"></path><path d="M280.67,164.75l-3.3-7.47s7.69-4.09,9.13.13c5.36.24,8,10.74,3.54,16.71-4.38-1.17-8.43-10.31-8.43-10.31C281.32,164.12,281,164.43,280.67,164.75Z" style="fill:#263238"></path><path d="M292.49,170.1a6.86,6.86,0,0,1-.9,5.22c-1.32,2-3.6,1.26-4.6-.83-.9-1.87-1.3-5.19.68-6.52A3.16,3.16,0,0,1,292.49,170.1Z" style="fill:#b55b52"></path><path d="M278.4,173.65c.31.51.28,1.08,0,1.28s-.86-.06-1.16-.57-.28-1.09.05-1.28S278.1,173.14,278.4,173.65Z" style="fill:#263238"></path><path d="M272.58,177c.31.51.28,1.09-.05,1.28s-.86-.06-1.16-.57-.28-1.08.05-1.28S272.28,176.52,272.58,177Z" style="fill:#263238"></path><path d="M274.59,176.21a20.24,20.24,0,0,1,0,5.67,3.52,3.52,0,0,0,2.7-1Z" style="fill:#a02724"></path><path d="M279.09,170.74a.36.36,0,0,1-.35,0,2.84,2.84,0,0,0-2.54.13.35.35,0,1,1-.39-.57,3.48,3.48,0,0,1,3.2-.2.37.37,0,0,1,.19.46A.49.49,0,0,1,279.09,170.74Z" style="fill:#263238"></path><path d="M268.89,176.5a.37.37,0,0,1-.18.08.35.35,0,0,1-.38-.32,3.45,3.45,0,0,1,1.16-3,.36.36,0,0,1,.5.07.34.34,0,0,1-.06.48,2.67,2.67,0,0,0-.9,2.35A.35.35,0,0,1,268.89,176.5Z" style="fill:#263238"></path><path d="M279.92,183.89a.29.29,0,0,1-.24-.13.28.28,0,0,1,.09-.4s2.22-1.44,2.5-3.44a.28.28,0,0,1,.32-.25.29.29,0,0,1,.25.33c-.32,2.27-2.66,3.78-2.76,3.85A.29.29,0,0,1,279.92,183.89Z" style="fill:#263238"></path><path d="M282.79,165.2s-1.8,1.86-3.58.39c0,0-3,1.94-3.67-.53,0,0-1,2.43-2.88,1.51,0,0-1.15,2.9-2.94,1.91,0,0-.59,2.72-2,2l-.55,2.51s-2.83.05-1.91-2.63c0,0-2.28-1.57-1.25-3.66,0,0-1.3-3.38,1.36-3.85,0,0-.57-2.91,2.86-2.44,0,0-.12-2.83,3.17-2.22,0,0,.57-3.85,4.31-1.94,0,0,2.07-3.26,4.43-1a4.68,4.68,0,0,1,3.14-1.05c2.05,0,2.86,2.22,2.86,2.22a3,3,0,0,1,3,.33c1.86,1,1.58,3.66,1.58,3.66s3.3,1.26,1.56,3.68S282.79,165.2,282.79,165.2Z" style="fill:#263238"></path><path d="M289.61,196s2.57,1.46,5.43,2.8c2.5-2.6,8.17-9.21,6.49-12.89-.81-.95-3.95-.64-3.95-.64S295.87,190.5,289.61,196Z" style="fill:#407BFF"></path><path d="M289.61,196a21.23,21.23,0,0,0-2.45,5.56c-2.74-.66-4.09-8.13-3.54-9.2a8.35,8.35,0,0,1,3.49-2.36A6.94,6.94,0,0,0,289.61,196Z" style="fill:#407BFF"></path><g style="opacity:0.2"><path d="M289.61,196s2.57,1.46,5.43,2.8c2.5-2.6,8.17-9.21,6.49-12.89-.81-.95-3.95-.64-3.95-.64S295.87,190.5,289.61,196Z" style="fill:#fff"></path><path d="M289.61,196a21.23,21.23,0,0,0-2.45,5.56c-2.74-.66-4.09-8.13-3.54-9.2a8.35,8.35,0,0,1,3.49-2.36A6.94,6.94,0,0,0,289.61,196Z" style="fill:#fff"></path></g><path d="M301.53,185.94a167.28,167.28,0,0,0,10,27.41l0,0A248.45,248.45,0,0,0,330.8,248c3.37,4.95,4.93,19.9,4.93,19.9s5.19-3.29,5.39-4.9c.12-1-1.25-11.15-5.75-19.2-2.87-5.13-4.82-10.87-6.74-16.13-4.92-13.48-13-44.82-13-44.82a47.26,47.26,0,0,0-9.62,1.75C304.66,184.94,303.14,185.39,301.53,185.94Z" style="fill:#407BFF"></path><path d="M341.12,263c-.2,1.6-5.39,4.89-5.39,4.89s-1.56-15-4.93-19.9a213.81,213.81,0,0,1-11.58-19.19c-2-3.75-3.79-7.28-5.33-10.45-.86-1.76-1.64-3.41-2.35-4.93l0,0a167,167,0,0,1-10-27.4c1.61-.56,3.13-1,4.51-1.39a46.69,46.69,0,0,1,9.62-1.74s1.15,4.49,2.86,10.8c1.1,4.12,2.45,9,3.86,13.95.78,2.74,1.58,5.49,2.38,8.12,1.36,4.55,2.7,8.75,3.87,11.94.52,1.42,1,2.87,1.58,4.34a82.09,82.09,0,0,0,5.16,11.8C339.87,251.81,341.24,262,341.12,263Z" style="fill:#fff;opacity:0.7000000000000001"></path><path d="M301.53,185.94a167.28,167.28,0,0,0,10,27.41l0,0,.58-21.27-5.45.67,4.64-4.32L306,184.56C304.66,184.94,303.14,185.39,301.53,185.94Z" style="fill:#fff;opacity:0.4"></path><path d="M290.89,275.12l1.59.69a100.29,100.29,0,0,0-.54-19.72c-1.24-8.19-4.4-18.08-6.57-29.35-.26-1.37-.5-2.69-.72-4-4.27-24.07-1.53-29.22-1.35-29.54l-3.2,1.95-5.78,3.55c1.67,13,10.81,39.51,15.53,57.94C291,261.18,290.89,275.12,290.89,275.12Z" style="fill:#407BFF"></path><path d="M290.89,275.12l1.59.69a100.29,100.29,0,0,0-.54-19.72c-1.24-8.19-4.4-18.08-6.57-29.35-.26-1.37-.5-2.69-.72-4-4.27-24.07-1.53-29.22-1.35-29.54l-3.2,1.95-5.78,3.55c1.67,13,10.81,39.51,15.53,57.94C291,261.18,290.89,275.12,290.89,275.12Z" style="fill:#fff;opacity:0.7000000000000001"></path><path d="M281.43,202.43l-3.4,3.36s3.61,11.43,6.62,17c-4.27-24.07-1.53-29.22-1.35-29.54l-3.2,1.95a24,24,0,0,0-3.35,7.16Z" style="fill:#fff;opacity:0.4"></path><path d="M309.44,307.81l4.41-24-.85-12.7S307,293.13,309.44,307.81Z" style="opacity:0.2"></path><polygon points="294.11 397.74 277.64 397.74 278.25 393.48 294.73 393.47 294.11 397.74" style="fill:#407BFF"></polygon><rect x="318.28" y="393.47" width="15.86" height="4.26" style="fill:#407BFF"></rect><path d="M305.76,218.65l-8.13-.17,3.72,8.23s7.27-.29,7-4Z" style="fill:#d9877c"></path><polygon points="290.66 222.53 296.26 228.52 301.35 226.71 297.63 218.48 290.66 222.53" style="fill:#d9877c"></polygon><path d="M322.38,207.57a26.85,26.85,0,0,1-5.27-14.31,12.15,12.15,0,0,1,1.41.36C319.62,197.74,321,202.64,322.38,207.57Z" style="opacity:0.1"></path><path d="M330.21,232a51.37,51.37,0,0,1-11-3.2c-2-3.75-3.79-7.28-5.33-10.45a65.54,65.54,0,0,0,10.87-2.63c1.36,4.55,2.7,8.75,3.87,11.94C329.15,229.05,329.67,230.5,330.21,232Z" style="opacity:0.1"></path><path d="M328,189.22a175.19,175.19,0,0,1,12.86,22.59,28.87,28.87,0,0,1,2.46,7.33,7.82,7.82,0,0,1-.08,2.78,6.46,6.46,0,0,1-4.71,4.57c-5.73,1.46-11.67.7-17.39.3s-11.35-1.4-17-2.5a2.57,2.57,0,0,1,.52-5.09c5.59,0,11.22,0,16.76-.12,4.51-.16,10.51-.15,14.11-1.29a3.31,3.31,0,0,0-1.42,2.11c-.14.73-.06.72-.1.69-1.39-4-3.85-7.83-6-11.59-2.43-4.14-6.14-10-8.7-14.14-3.45-5.8,4.73-11.15,8.66-5.64Z" style="fill:#d9877c"></path><path d="M315.66,182.81c7.19-.31,12.12,5.57,20.09,15.94,12.76,16.61,14.06,25.06,11,27.65-5.09,4.26-25.46,2.92-25.46,2.92l-3.63-11.77s11.94-1.42,12-2.25-10-14.45-10-14.45a24.53,24.53,0,0,1-4.33-9.82A17.57,17.57,0,0,1,315.66,182.81Z" style="fill:#407BFF"></path><path d="M315.66,182.81c7.19-.31,12.12,5.57,20.09,15.94,12.76,16.61,14.06,25.06,11,27.65-5.09,4.26-25.46,2.92-25.46,2.92l-3.63-11.77s11.94-1.42,12-2.25-10-14.45-10-14.45a24.53,24.53,0,0,1-4.33-9.82A17.57,17.57,0,0,1,315.66,182.81Z" style="fill:#fff;opacity:0.7000000000000001"></path></g><g id="freepik--character-1--inject-112"><polygon points="149.15 265.1 153.96 265.1 167.36 335.54 162.55 335.54 149.15 265.1" style="fill:#263238"></polygon><polygon points="167.01 265.1 171.82 265.1 185.22 335.54 180.41 335.54 167.01 265.1" style="fill:#263238"></polygon><polygon points="184.88 265.1 189.69 265.1 203.08 335.54 198.27 335.54 184.88 265.1" style="fill:#263238"></polygon><polygon points="149.15 265.1 153.96 265.1 167.36 335.54 162.55 335.54 149.15 265.1" style="fill:#fff;isolation:isolate;opacity:0.4"></polygon><polygon points="167.01 265.1 171.82 265.1 185.22 335.54 180.41 335.54 167.01 265.1" style="fill:#fff;isolation:isolate;opacity:0.4"></polygon><polygon points="184.88 265.1 189.69 265.1 203.08 335.54 198.27 335.54 184.88 265.1" style="fill:#fff;isolation:isolate;opacity:0.4"></polygon><path d="M157.47,273.23c7.74-4.2,18.5-4.2,28.77,0,5.2,2,11.34,2.62,14.06-.32h0c4.64-4.32-3.49-17.13-19.1-21.19-11.17-2.87-22.22-2.87-31.66,0-13.16,4.06-13.57,16.87-6.33,21.19h0C147.71,275.85,153.5,275.28,157.47,273.23Z" style="fill:#263238"></path><path d="M157.47,273.23c7.74-4.2,18.5-4.2,28.77,0,5.2,2,11.34,2.62,14.06-.32h0c4.64-4.32-3.49-17.13-19.1-21.19-11.17-2.87-22.22-2.87-31.66,0-13.16,4.06-13.57,16.87-6.33,21.19h0C147.71,275.85,153.5,275.28,157.47,273.23Z" style="fill:#fff;opacity:0.4"></path><path d="M158.17,329.7h74.71a0,0,0,0,1,0,0v6.69a5,5,0,0,1-5,5H163.17a5,5,0,0,1-5-5V329.7A0,0,0,0,1,158.17,329.7Z" transform="translate(391.04 671.08) rotate(180)" style="fill:#263238"></path><path d="M158.17,329.7h74.71a0,0,0,0,1,0,0v6.69a5,5,0,0,1-5,5H163.17a5,5,0,0,1-5-5V329.7A0,0,0,0,1,158.17,329.7Z" transform="translate(391.04 671.08) rotate(180)" style="fill:#fff;opacity:0.4"></path><polygon points="192.3 415.45 198.75 415.45 200.36 352.94 200.77 337.36 190.27 337.36 190.67 352.94 192.3 415.45" style="fill:#263238"></polygon><polygon points="192.3 415.45 198.75 415.45 200.36 352.94 200.77 337.36 190.27 337.36 190.67 352.94 192.3 415.45" style="fill:#fff;isolation:isolate;opacity:0.4"></polygon><polygon points="190.27 337.36 190.67 353.37 200.36 353.37 200.77 337.36 190.27 337.36" style="isolation:isolate;opacity:0.2"></polygon><polygon points="165.07 415.45 172.17 338.46 163.05 338.46 157.98 415.45 165.07 415.45" style="fill:#263238"></polygon><polygon points="165.09 415.45 171.47 346.06 172.17 338.36 163.05 338.36 162.55 346.06 157.99 415.45 165.09 415.45" style="fill:#fff;isolation:isolate;opacity:0.4"></polygon><polygon points="172.17 338.36 171.47 346.37 162.55 346.37 163.05 338.36 172.17 338.36" style="isolation:isolate;opacity:0.2"></polygon><polygon points="233.06 415.45 227.99 338.46 218.87 338.46 225.97 415.45 233.06 415.45" style="fill:#263238"></polygon><polygon points="225.96 415.45 233.06 415.45 228.5 346.06 227.99 338.36 218.87 338.36 219.58 346.06 225.96 415.45" style="fill:#fff;isolation:isolate;opacity:0.4"></polygon><polygon points="218.87 338.36 219.58 346.37 228.5 346.37 227.99 338.36 218.87 338.36" style="isolation:isolate;opacity:0.2"></polygon><rect x="154.59" y="335.54" width="81.87" height="5.85" rx="2.01" transform="translate(391.04 676.93) rotate(-180)" style="fill:#263238"></rect><rect x="154.59" y="335.54" width="81.87" height="5.85" rx="2.01" transform="translate(391.04 676.93) rotate(-180)" style="fill:#fff;isolation:isolate;opacity:0.6000000000000001"></rect><g id="freepik--group--inject-112"><path d="M260.53,281.72l6.54-3.91,1,9.59s-6.3,2.09-7.76-1.16Z" style="fill:#ebb376"></path><polygon points="273.27 278.58 273.71 286.55 268.05 287.4 267.07 277.81 273.27 278.58" style="fill:#ebb376"></polygon><path d="M255.1,278.48c-2.54-.57-5.07-1.16-7.58-1.79s-5-1.23-7.39-1.9c-1.2-.33-2.38-.68-3.46-1.05-.47-.16-.92-.33-1.32-.49l-.08-.18c-.09-.19-.18-.45-.28-.69-.39-1-.77-2.12-1.14-3.28-.74-2.33-1.42-4.79-2.12-7.24-1.35-4.92-3-14.16-4.49-15.28l-13,3.78c1,3.9,2.09,7.72,3.28,11.53.41,1.3.83,2.6,1.26,3.91.83,2.58,1.74,5.13,2.79,7.75.13.33.27.65.4,1,.42,1,.84,2,1.35,3.06.18.36.35.71.57,1.11l.3.57.38.65c.11.19.29.46.46.72l.27.38c.07.1.25.33.38.48l.44.51.12.13.2.2c.15.14.29.27.45.4s.45.35.68.51l.55.34a16,16,0,0,0,2.93,1.25c.8.26,1.55.45,2.27.63,1.45.35,2.82.62,4.19.88,2.73.49,5.4.86,8.06,1.19s5.34.59,8,.83,5.3.43,8,.54l1.17-8.67Z" style="fill:#407BFF"></path><path d="M222,274.53c-.13-.33-.27-.65-.4-1-1.05-2.62-2-5.17-2.79-7.75-.43-1.31-.85-2.61-1.26-3.91a46.28,46.28,0,0,1,1.37-5.89A47,47,0,0,1,222,274.53Z" style="isolation:isolate;opacity:0.2"></path><path d="M241.46,404.78s0,.05,0,.06a.08.08,0,0,0,.08,0,10.36,10.36,0,0,0,2.06.94,2.24,2.24,0,0,0,1.65.06,1.06,1.06,0,0,0,.55-1,.75.75,0,0,0-.27-.67,3.45,3.45,0,0,0-2.38-.11,3.13,3.13,0,0,0,1.29-1.7.74.74,0,0,0-.5-.78.94.94,0,0,0-.85,0c-1,.54-1.5,2.91-1.53,3h0l-.15,0A.32.32,0,0,0,241.46,404.78Zm.65-.46-.2.05c.22-.77.68-2.05,1.3-2.37a.61.61,0,0,1,.46-.05l.09,0c.26.11.29.27.27.38C244,402.94,243,403.88,242.11,404.32Zm0,.44c1.13-.32,2.69-.59,3.16-.22a.35.35,0,0,1,.13.33.7.7,0,0,1-.34.63C244.58,405.76,243.5,405.48,242.13,404.76Z" style="fill:#407BFF"></path><polygon points="236.81 387.58 231.81 403.57 240.29 404.38 244.83 389.81 236.81 387.58" style="fill:#ebb376"></polygon><polygon points="236.8 387.58 234.32 395.5 242.69 396.69 244.83 389.81 236.8 387.58" style="isolation:isolate;opacity:0.2"></polygon><path d="M241.14,403.53,232,400.77a.6.6,0,0,0-.77.36h0l-2.64,7.11a1.5,1.5,0,0,0,1,1.87c3.21.91,4.78,1.19,8.81,2.37,2.48.74,7.29,2.44,10.83,2.92s3.91-3,2.46-3.54c-3.45-1.24-7.53-4.95-9.28-7.45A2.37,2.37,0,0,0,241.14,403.53Z" style="fill:#263238"></path><path d="M185.62,302.44c1.17,19,4,29.37,21.12,31.83s43.74,0,43.74,0l-16.33,58.41,16.32,5.47s27.26-70.56,23.64-78.22-55-12.74-55-12.74l-4.67-9.69Z" style="fill:#407BFF"></path><path d="M262.14,366.25c-5.89,16.91-11.68,31.9-11.68,31.9l-16.31-5.47,16.33-58.4a282.52,282.52,0,0,1-33.72.89c-3.51-.16-6.93-.44-10-.89-17.07-2.47-20-12.87-21.12-31.83l28.8-4.94,4.67,9.69s51.4,5.08,55,12.73C276.06,324.06,269,346.47,262.14,366.25Z" style="fill:#fff;isolation:isolate;opacity:0.6000000000000001"></path><path d="M262.14,366.25c-5.89,16.91-11.68,31.9-11.68,31.9l-16.31-5.47,16.33-58.4a282.52,282.52,0,0,1-33.72.89l.75-25.63s31.9-.16,43.88,6.86C264.32,318.12,263.52,342.9,262.14,366.25Z" style="isolation:isolate;opacity:0.2"></path><path d="M170.62,302.44c1.17,19,4,29.37,21.12,31.83s43.74,0,43.74,0l3.67,62.41,16.32-.53s7.26-70.56,3.64-78.22-50-8.74-50-8.74l-4.67-11.69Z" style="fill:#407BFF"></path><path d="M170.62,302.44c1.17,19,4,29.37,21.12,31.83s43.74,0,43.74,0l3.67,62.41,16.32-.53s7.26-70.56,3.64-78.22-50-8.74-50-8.74l-4.67-11.69Z" style="fill:#fff;isolation:isolate;opacity:0.6000000000000001"></path><path d="M252,407s0,0,0,0a.09.09,0,0,0,.07,0,10,10,0,0,0,2.23.35,2.29,2.29,0,0,0,1.61-.38,1,1,0,0,0,.27-1.1.78.78,0,0,0-.44-.58,3.53,3.53,0,0,0-2.33.53,3.07,3.07,0,0,0,.79-2,.75.75,0,0,0-.69-.62,1,1,0,0,0-.81.25c-.86.8-.66,3.2-.66,3.34l.14,0h0l-.14,0s-.14.05-.13.06A.18.18,0,0,0,252,407Zm.5-.62-.17.1c0-.8.09-2.15.61-2.62a.57.57,0,0,1,.43-.18h.09c.28,0,.36.18.37.3A4.05,4.05,0,0,1,252.47,406.42Zm.13.42c1-.61,2.44-1.29,3-1.06a.37.37,0,0,1,.22.28.74.74,0,0,1-.16.7C255.24,407.15,254.12,407.17,252.6,406.84Z" style="fill:#407BFF"></path><polygon points="242.87 391.72 242.35 408.46 250.73 406.97 251.19 391.72 242.87 391.72" style="fill:#ebb376"></polygon><polygon points="242.87 391.72 242.6 400.01 250.98 398.91 251.2 391.72 242.87 391.72" style="isolation:isolate;opacity:0.2"></polygon><path d="M251.33,405.92l-9.55-.21a.61.61,0,0,0-.65.56h0l-.63,7.55a1.5,1.5,0,0,0,1.45,1.54c3.34,0,4.93-.14,9.13-.08,2.58,0,7.67.39,11.21-.09s3-4,1.42-4.08c-3.65-.27-8.57-2.74-10.93-4.68A2.38,2.38,0,0,0,251.33,405.92Z" style="fill:#263238"></path><polygon points="238.15 396.7 255.74 397.15 256.94 389.58 237.63 389.46 238.15 396.7" style="fill:#407BFF"></polygon><polygon points="238.15 396.7 255.74 397.15 256.94 389.58 237.63 389.46 238.15 396.7" style="fill:#fff;opacity:0.2"></polygon><path d="M227.24,246.58a196.2,196.2,0,0,0-7.75,28.13c-.86,4.3-1.63,8.9-2.19,13.65-.55,4.59-.9,9.33-1,14.09H170.62s0-26.09,7.76-46.62a57.88,57.88,0,0,1,5.27-10.8c.4-.66.83-1.31,1.27-1.93a8.49,8.49,0,0,1,5.08-3.4,52.61,52.61,0,0,1,15.94-1.19C215.49,239.47,227.24,246.58,227.24,246.58Z" style="fill:#407BFF"></path><path d="M251.33,405.92l-9.55-.21a.61.61,0,0,0-.65.56h0l-.63,7.55a1.5,1.5,0,0,0,1.45,1.54c3.34,0,4.93-.14,9.13-.08,2.58,0,7.67.39,11.21-.09s3-4,1.42-4.08c-3.65-.27-8.57-2.74-10.93-4.68A2.38,2.38,0,0,0,251.33,405.92Z" style="fill:#fff;opacity:0.2"></path><path d="M271.89,288.3l-9.13-14.53a.63.63,0,0,1,.2-.86l.22-.13a.61.61,0,0,1,.85.2l9.13,14.52.25,1.7Z" style="fill:#263238"></path><path d="M219.49,274.71c-.86,4.3-1.63,8.9-2.19,13.65-9.4,2.56-30.18,7.23-36.23.49-7.9-8.81,0-33.72,0-33.72l13.53,2.92s-1.6,15-.06,16.05C195.9,275,215.1,274.77,219.49,274.71Z" style="isolation:isolate;opacity:0.2"></path><path d="M216.34,276.59l6.54-3.91,1,9.6s-6.3,2.08-7.76-1.16Z" style="fill:#ebb376"></path><polygon points="229.08 273.45 229.52 281.42 223.86 282.28 222.88 272.68 229.08 273.45" style="fill:#ebb376"></polygon><path d="M217.5,275.35c-5.68.86-11.5,1.72-17.11,2.24a54.74,54.74,0,0,1-8.43.32h0c0-.66,0-1.41,0-2.17.06-1.26.19-2.6.35-4,.34-2.72.74-5.51,1.23-8.31,1-5.58,2.2-11.31,3.54-16.69l-8-2a5.6,5.6,0,0,0-6.87,4.3c-.86,4.1-1.55,8.16-2.12,12.33-.41,3-.8,6.1-1,9.27-.09,1.58-.15,3.19-.14,4.88a33.7,33.7,0,0,0,.44,5.54,13.47,13.47,0,0,0,1.31,4,8.28,8.28,0,0,0,1,1.47,7,7,0,0,0,.76.83c.15.14.3.28.46.41a4.92,4.92,0,0,0,.41.31,9.6,9.6,0,0,0,2.72,1.34,14.67,14.67,0,0,0,3.59.61,26.3,26.3,0,0,0,2.81,0,69,69,0,0,0,9.61-1.32,149,149,0,0,0,17.6-4.87Z" style="fill:#407BFF"></path><path d="M197.18,279.16c-2.05,3-6.76,9.7-9.39,10.88a3.35,3.35,0,0,0,2.53.91c1.7,0,22.34-3.29,24.78-3.9s-.89-19.25-1.61-20.6-4.58-1.46-6-.84C205.14,266.7,200.3,274.63,197.18,279.16Z" style="fill:#407BFF"></path><path d="M197.18,279.16c-2.05,3-6.76,9.7-9.39,10.88a3.35,3.35,0,0,0,2.53.91c1.7,0,22.34-3.29,24.78-3.9s-.89-19.25-1.61-20.6-4.58-1.46-6-.84C205.14,266.7,200.3,274.63,197.18,279.16Z" style="fill:#fff;opacity:0.7000000000000001"></path><path d="M197.22,239.57s4.15-3.86,6.19-4,9.32,4.43,10.85,5.32,1.73,8.81,1.73,8.81l-2.14-3.77L210.62,250l-3.48-1.85-2.1,3.64S197.79,245.64,197.22,239.57Z" style="fill:#407BFF"></path><path d="M197.22,239.57s4.15-3.86,6.19-4,9.32,4.43,10.85,5.32,1.73,8.81,1.73,8.81l-2.14-3.77L210.62,250l-3.48-1.85-2.1,3.64S197.79,245.64,197.22,239.57Z" style="fill:#fff;opacity:0.7000000000000001"></path><path d="M202.73,241.36c2.34,3.49,7.89,6.34,7.89,6.34l1.73-3.46c-.52-2.57-.38-4,1.5-6.21l-5.22-12.52c-1.19,4.21-3.58,9.42-7,12.26C201.6,237.77,201.16,239,202.73,241.36Z" style="fill:#ebb376"></path><path d="M210.76,230.61l3.08,7.42a17.14,17.14,0,0,0-1.81,2.42c-1.9-1.33-3.58-5-2.71-7.28A8.09,8.09,0,0,1,210.76,230.61Z" style="isolation:isolate;opacity:0.2"></path><path d="M229.64,218.38c.27,2.9-1.39,8.37-4.79,5.74-1.7-1.31-1.15-10.48-1.15-10.48S229.41,215.89,229.64,218.38Z" style="fill:#263238"></path><path d="M206.53,217.23s.74-7.74,6.78-9.36a14,14,0,0,1,13.63,4c2.47,3.08,2.33,8.52,2,11.16S209.83,224.81,206.53,217.23Z" style="fill:#ebb376"></path><path d="M209.32,217.86c-1.91,6.87-3.38,10.81-1.16,15.41,3.35,6.92,12.78,6.63,16.72.44,3.54-5.57,6.07-15.88.37-20.78A9.85,9.85,0,0,0,209.32,217.86Z" style="fill:#ebb376"></path><path d="M208.9,209.71a5.51,5.51,0,0,1,6.72,3.84c.7,2.27-2.7,7.54-6.66,9.43C202.67,223,204.91,210.68,208.9,209.71Z" style="fill:#263238"></path><path d="M204.78,222.57a6.73,6.73,0,0,0,1.88,4.81c1.67,1.69,3.7.49,4.24-1.7.49-2,.21-5.22-1.94-6.09A3.08,3.08,0,0,0,204.78,222.57Z" style="fill:#ebb376"></path><path d="M218.94,223.17c-.19.55-.05,1.09.31,1.22s.81-.23,1-.78.05-1.09-.31-1.21S219.13,222.62,218.94,223.17Z" style="fill:#263238"></path><path d="M225.17,225.26c-.19.55,0,1.09.31,1.21s.81-.23,1-.78.05-1.09-.31-1.21S225.36,224.71,225.17,225.26Z" style="fill:#263238"></path><path d="M223.1,224.87a20,20,0,0,0,1.11,5.42,3.42,3.42,0,0,1-2.77-.43Z" style="fill:#d58745"></path><path d="M217.71,220.53a.34.34,0,0,0,.35,0,2.77,2.77,0,0,1,2.44-.38.34.34,0,0,0,.27-.63,3.46,3.46,0,0,0-3.1.45.34.34,0,0,0-.09.47A.37.37,0,0,0,217.71,220.53Z" style="fill:#263238"></path><path d="M228.6,224a.31.31,0,0,0,.19,0,.34.34,0,0,0,.3-.38,3.36,3.36,0,0,0-1.7-2.59.35.35,0,0,0-.46.16.34.34,0,0,0,.16.45,2.63,2.63,0,0,1,1.32,2.07A.32.32,0,0,0,228.6,224Z" style="fill:#263238"></path><path d="M219,229.91l-.3.79a10.19,10.19,0,0,1,2.65,1.36c.44.55-2,3.63-2.48,3.63s-2.6-1.41-1.33-3l-1.19-.71s-1.77,1.65-2.56,1.41-2.94-.92-2.08-2.9a4.11,4.11,0,0,1,3.71-2.27c.59,0,2.73,2.15,2.73,2.15l.66-.55c-.31-.57-1.9-3.32-3.54-3.69-1.83-.4-6.72,3.87-7,6.2s1,5.8,6.42,6.84,8.34-5.68,8.18-7C222.68,230.9,219.64,230.08,219,229.91Z" style="fill:#263238"></path><path d="M219.25,231.46s-3.13-1.77-4.32-1.83-1.5,1.25,3.3,2.56A1,1,0,0,1,219.25,231.46Z" style="fill:#263238"></path><path d="M220,224.06a2.1,2.1,0,0,1-3.64.92,5.41,5.41,0,0,1-.36-.52c1.52,1.23,2.72,1,4-.4Z" style="isolation:isolate;opacity:0.2"></path><path d="M224.49,225.48c.52,1,.55,2.35,1.8,2.7-1.42.42-2-1.62-1.8-2.7Z" style="isolation:isolate;opacity:0.2"></path><path d="M218,215.25c3.43-.75,7.47-.34,10.19,2.06-3.07-1.82-6.69-2.14-10.19-2.06Z" style="isolation:isolate;opacity:0.2"></path><path d="M217.83,212.67a12.23,12.23,0,0,1,9.66,2,21.85,21.85,0,0,0-9.66-2Z" style="isolation:isolate;opacity:0.2"></path><path d="M222,217.81a6.2,6.2,0,0,1,4.65,1.09c-1.57-.39-3.08-.68-4.65-1.09Z" style="isolation:isolate;opacity:0.2"></path><path d="M190.64,290.49c1.73-1.37,2.77-3.51,4.06-5.28l3.68-5.61c2.46-3.74,4.85-7.5,7.55-11.1.71-.91,1.49-1.93,2.74-2a6.09,6.09,0,0,1,3.65.31.61.61,0,0,1,.21.3,54.53,54.53,0,0,1,1.05,6.24l.82,6.65c.19,1.95.7,4.81-.17,6.65.79-1.87.19-4.69-.08-6.61l-1-6.64c-.26-1.52-.62-4.29-1-5.76a2.38,2.38,0,0,0-.11-.38c0-.05-.08-.13,0-.06a5.63,5.63,0,0,0-3.33-.23c-1.15.1-1.78,1-2.44,1.87-4,5.33-7.55,11.08-11.43,16.53-1.36,1.74-2.48,3.84-4.26,5.15Z" style="isolation:isolate;opacity:0.2"></path><path d="M208.26,267.37s3.18-.08,3.3,0,.58.69-1.37.69S207.67,267.92,208.26,267.37Z" style="fill:#407BFF"></path><path d="M216,241.13c1.6,1.25-6.43,23.4-7.49,26.3a.24.24,0,0,0,.22.31H211a.37.37,0,0,0,.36-.24c.93-2.44,8.32-22.12,7.48-25.21,0,0-.05-.39-2.3-1.2A.49.49,0,0,0,216,241.13Z" style="fill:#263238"></path><path d="M230.6,286.8h0a10.35,10.35,0,0,1-4.52-2,.25.25,0,0,1,.31-.39,9.93,9.93,0,0,0,4.27,1.92.26.26,0,0,1,.22.28A.25.25,0,0,1,230.6,286.8Z" style="fill:#263238"></path><path d="M227.93,288.31h0a5,5,0,0,1-3.65-1.86.24.24,0,0,1,.06-.35.23.23,0,0,1,.34,0,4.58,4.58,0,0,0,3.27,1.66.26.26,0,0,1,.24.26A.25.25,0,0,1,227.93,288.31Z" style="fill:#263238"></path><path d="M233.29,258.77a.25.25,0,0,1-.22-.22c-.15-1.28-.7-4.71-1.53-5.34a.25.25,0,0,1,.3-.4c1.15.87,1.67,5.19,1.72,5.68a.25.25,0,0,1-.22.28Z" style="fill:#263238"></path><path d="M234.9,256.89a.27.27,0,0,1-.22-.21,18.27,18.27,0,0,0-.73-2.61.26.26,0,0,1,.15-.32.26.26,0,0,1,.32.15,19.87,19.87,0,0,1,.76,2.7.25.25,0,0,1-.21.28Z" style="fill:#263238"></path><path d="M265.75,272.93a.23.23,0,0,1-.2-.1c-1.25-1.63-1.72-2.06-2.91-2.2a.24.24,0,0,1-.22-.27.24.24,0,0,1,.28-.22c1.42.16,2,.78,3.25,2.39a.25.25,0,0,1-.05.35A.21.21,0,0,1,265.75,272.93Z" style="fill:#263238"></path><path d="M265.75,270.63a.23.23,0,0,1-.2-.1,3.51,3.51,0,0,0-2.17-1.47.25.25,0,1,1,.06-.5,4,4,0,0,1,2.51,1.68.25.25,0,0,1-.05.35A.28.28,0,0,1,265.75,270.63Z" style="fill:#263238"></path><g style="opacity:0.7000000000000001"><path d="M230.6,286.8h0a10.35,10.35,0,0,1-4.52-2,.25.25,0,0,1,.31-.39,9.93,9.93,0,0,0,4.27,1.92.26.26,0,0,1,.22.28A.25.25,0,0,1,230.6,286.8Z" style="fill:#fff"></path><path d="M227.93,288.31h0a5,5,0,0,1-3.65-1.86.24.24,0,0,1,.06-.35.23.23,0,0,1,.34,0,4.58,4.58,0,0,0,3.27,1.66.26.26,0,0,1,.24.26A.25.25,0,0,1,227.93,288.31Z" style="fill:#fff"></path><path d="M233.29,258.77a.25.25,0,0,1-.22-.22c-.15-1.28-.7-4.71-1.53-5.34a.25.25,0,0,1,.3-.4c1.15.87,1.67,5.19,1.72,5.68a.25.25,0,0,1-.22.28Z" style="fill:#fff"></path><path d="M234.9,256.89a.27.27,0,0,1-.22-.21,18.27,18.27,0,0,0-.73-2.61.26.26,0,0,1,.15-.32.26.26,0,0,1,.32.15,19.87,19.87,0,0,1,.76,2.7.25.25,0,0,1-.21.28Z" style="fill:#fff"></path><path d="M265.75,272.93a.23.23,0,0,1-.2-.1c-1.25-1.63-1.72-2.06-2.91-2.2a.24.24,0,0,1-.22-.27.24.24,0,0,1,.28-.22c1.42.16,2,.78,3.25,2.39a.25.25,0,0,1-.05.35A.21.21,0,0,1,265.75,272.93Z" style="fill:#fff"></path><path d="M265.75,270.63a.23.23,0,0,1-.2-.1,3.51,3.51,0,0,0-2.17-1.47.25.25,0,1,1,.06-.5,4,4,0,0,1,2.51,1.68.25.25,0,0,1-.05.35A.28.28,0,0,1,265.75,270.63Z" style="fill:#fff"></path></g></g></g><g id="freepik--Table--inject-112"><polygon points="210.09 415.45 204.19 415.45 208.02 297.5 215.45 297.5 210.09 415.45" style="fill:#263238"></polygon><polygon points="290.64 415.45 284.74 415.45 288.57 297.5 296 297.5 290.64 415.45" style="fill:#263238"></polygon><polygon points="210.09 415.45 204.19 415.45 208.02 297.5 215.45 297.5 210.09 415.45" style="fill:#fff;isolation:isolate;opacity:0.4"></polygon><polygon points="290.64 415.45 284.74 415.45 288.57 297.5 296 297.5 290.64 415.45" style="fill:#fff;isolation:isolate;opacity:0.4"></polygon><polygon points="387.51 415.45 393.41 415.45 389.58 297.5 382.15 297.5 387.51 415.45" style="fill:#263238"></polygon><polygon points="306.96 415.45 312.86 415.45 309.03 297.5 301.6 297.5 306.96 415.45" style="fill:#263238"></polygon><polygon points="387.51 415.45 393.41 415.45 389.58 297.5 382.15 297.5 387.51 415.45" style="fill:#fff;isolation:isolate;opacity:0.30000000000000004"></polygon><polygon points="306.96 415.45 312.86 415.45 309.03 297.5 301.6 297.5 306.96 415.45" style="fill:#fff;isolation:isolate;opacity:0.30000000000000004"></polygon><path d="M202.77,292.33H395.83a0,0,0,0,1,0,0v8.55a1.57,1.57,0,0,1-1.57,1.57H204.33a1.57,1.57,0,0,1-1.57-1.57v-8.55A0,0,0,0,1,202.77,292.33Z" style="fill:#263238"></path><path d="M395.83,292.33v8.55a1.57,1.57,0,0,1-1.57,1.57H204.33a1.56,1.56,0,0,1-1.56-1.57v-8.55Z" style="fill:#fff;isolation:isolate;opacity:0.5"></path><path d="M395.83,292.48v8.4a1.57,1.57,0,0,1-1.57,1.57H299.15v-6.11l-96.38-1.87v-2.14Z" style="isolation:isolate;opacity:0.1"></path><path d="M400.74,294.47H197.56a2,2,0,0,1-2-2h0a2,2,0,0,1,2-2H400.74a2,2,0,0,1,2,2h0A2,2,0,0,1,400.74,294.47Z" style="fill:#263238"></path><path d="M402.73,292.48a2,2,0,0,1-2,2H197.56a2,2,0,1,1,0-4H400.74A2,2,0,0,1,402.73,292.48Z" style="fill:#fff;isolation:isolate;opacity:0.6000000000000001"></path><path d="M299.73,292.48a2,2,0,0,1-2,2H197.56a2,2,0,1,1,0-4H297.73A2,2,0,0,1,299.73,292.48Z" style="fill:#fff;isolation:isolate;opacity:0.2"></path><path d="M219.28,290.53a52.36,52.36,0,0,1,12.34-1.62c6.47,0,8.92,1.15,14.67,1.15a38.93,38.93,0,0,0,10.61-1.55h27.32a57.76,57.76,0,0,1-15.41,2Z" style="fill:#407BFF"></path><path d="M219.28,290.53a52.36,52.36,0,0,1,12.34-1.62c6.47,0,8.92,1.15,14.67,1.15a38.93,38.93,0,0,0,10.61-1.55h27.32a57.76,57.76,0,0,1-15.41,2Z" style="fill:#fff;opacity:0.7000000000000001"></path><rect x="350.66" y="255.25" width="3.77" height="28.66" transform="translate(-36.66 56.32) rotate(-8.68)" style="fill:#407BFF"></rect><g style="isolation:isolate;opacity:0.7000000000000001"><rect x="350.66" y="255.25" width="3.77" height="28.66" transform="translate(-36.66 56.32) rotate(-8.68)" style="fill:#fff"></rect></g><g style="opacity:0.2"><rect x="348.64" y="256.29" width="1.07" height="0.3" transform="translate(-34.73 55.69) rotate(-8.69)"></rect><rect x="348.77" y="257.14" width="1.07" height="0.3" transform="matrix(0.99, -0.15, 0.15, 0.99, -34.93, 55.85)"></rect><rect x="348.9" y="257.99" width="1.07" height="0.3" transform="translate(-35 55.77) rotate(-8.69)"></rect><rect x="349.03" y="258.84" width="1.07" height="0.3" transform="translate(-35.17 55.89) rotate(-8.71)"></rect><rect x="349.16" y="259.69" width="1.07" height="0.3" transform="translate(-35.17 55.68) rotate(-8.67)"></rect><rect x="349.29" y="260.55" width="1.07" height="0.3" transform="translate(-35.31 55.73) rotate(-8.67)"></rect><rect x="349.42" y="261.4" width="1.07" height="0.3" transform="translate(-35.49 55.85) rotate(-8.69)"></rect><rect x="349.55" y="262.25" width="1.07" height="0.3" transform="translate(-35.62 55.9) rotate(-8.69)"></rect><rect x="349.68" y="263.1" width="1.07" height="0.3" transform="translate(-35.69 55.82) rotate(-8.67)"></rect><rect x="349.81" y="263.95" width="1.07" height="0.3" transform="translate(-35.94 56.07) rotate(-8.71)"></rect><rect x="349.94" y="264.81" width="1.07" height="0.3" transform="translate(-35.93 55.86) rotate(-8.67)"></rect><rect x="350.07" y="265.66" width="1.07" height="0.3" transform="translate(-36.13 56.02) rotate(-8.69)"></rect><rect x="350.2" y="266.51" width="1.07" height="0.3" transform="translate(-36.19 55.92) rotate(-8.67)"></rect><rect x="350.33" y="267.36" width="1.07" height="0.3" transform="translate(-36.39 56.08) rotate(-8.69)"></rect><rect x="350.46" y="268.21" width="1.07" height="0.3" transform="translate(-36.45 56) rotate(-8.67)"></rect><rect x="350.59" y="269.06" width="1.07" height="0.3" transform="translate(-36.63 56.12) rotate(-8.69)"></rect><rect x="350.72" y="269.92" width="1.07" height="0.3" transform="matrix(0.99, -0.15, 0.15, 0.99, -36.84, 56.29)"></rect><rect x="350.85" y="270.77" width="1.07" height="0.3" transform="translate(-36.84 56.09) rotate(-8.67)"></rect><rect x="350.98" y="271.62" width="1.07" height="0.3" transform="matrix(0.99, -0.15, 0.15, 0.99, -37.01, 56.2)"></rect><rect x="351.11" y="272.47" width="1.07" height="0.3" transform="translate(-37.15 56.25) rotate(-8.69)"></rect><rect x="351.24" y="273.32" width="1.07" height="0.3" transform="translate(-37.23 56.19) rotate(-8.68)"></rect><rect x="351.37" y="274.17" width="1.07" height="0.3" transform="translate(-37.39 56.29) rotate(-8.69)"></rect><rect x="351.5" y="275.03" width="1.07" height="0.3" transform="translate(-37.59 56.45) rotate(-8.71)"></rect><rect x="351.63" y="275.88" width="1.07" height="0.3" transform="translate(-37.67 56.39) rotate(-8.69)"></rect></g><rect x="356.17" y="259.68" width="1.44" height="19.08" style="fill:#407BFF"></rect><polygon points="357.5 257.52 356.29 257.52 356.17 259.68 357.62 259.68 357.5 257.52" style="fill:#407BFF"></polygon><g style="opacity:0.8"><polygon points="357.5 257.52 356.29 257.52 356.17 259.68 357.62 259.68 357.5 257.52" style="fill:#fff"></polygon></g><g style="opacity:0.30000000000000004"><rect x="356.17" y="259.68" width="1.44" height="19.08"></rect></g><rect x="362.49" y="261.68" width="1.27" height="19.29" transform="translate(37.29 -43.81) rotate(7.28)" style="fill:#263238"></rect><path d="M365.61,260.28l-.37-.44.08-2.57-.8-.1-1,4.47.06,1,1.26.16.18-.51-.27,3.39.16,0A35.72,35.72,0,0,0,365.61,260.28Z" style="fill:#263238"></path><g style="opacity:0.1"><path d="M365.61,260.28l-.37-.44.08-2.57-.8-.1-1,4.47.06,1,1.26.16.18-.51-.27,3.39.16,0A35.72,35.72,0,0,0,365.61,260.28Z" style="fill:#fff"></path></g><polygon points="362.81 266.29 358.87 266.5 359.01 262.54 362.25 262.37 362.81 266.29" style="fill:#263238"></polygon><polygon points="362.81 266.29 358.87 266.5 359.78 277.2 363.02 277.03 362.81 266.29" style="fill:#407BFF"></polygon><polygon points="364.3 271.74 349.68 271.74 350.85 290.39 363.12 290.39 364.3 271.74" style="fill:#263238"></polygon><rect x="349.47" y="271.03" width="15.04" height="1.9" style="fill:#263238"></rect><g style="opacity:0.2"><rect x="349.47" y="271.03" width="15.04" height="1.9" style="fill:#fff"></rect></g><path d="M381.05,260.43s3.79-10.41,5.67-11.7,4.52-10.33,2.26-14.15a15,15,0,0,0-6.21,8.77s-.11-10.4-5.42-12.9c0,0-3.45,7.94-.94,14.28a7.83,7.83,0,0,0-5-1.38s1.88,4.13,4.69,4.75l2.82,14.56Z" style="fill:#407BFF"></path><path d="M381.05,260.43s3.79-10.41,5.67-11.7,4.52-10.33,2.26-14.15a15,15,0,0,0-6.21,8.77s-.11-10.4-5.42-12.9c0,0-3.45,7.94-.94,14.28a7.83,7.83,0,0,0-5-1.38s1.88,4.13,4.69,4.75l2.82,14.56Z" style="opacity:0.2"></path><path d="M381.88,262.66A8.92,8.92,0,0,1,388,255c5.93-2.18,7.34-4.16,7.34-4.16s-3.6-1.62-6.33.73A27.26,27.26,0,0,0,395.31,239a12.27,12.27,0,0,0-6.72,8.47s.63-5.89-3-8.47c0,0-2.49,4.92-.78,9.45,0,0-2.11-2.18-4-2.5,0,0-1,6,1.94,8.13,0,0-2.07,6.09-2.11,9.52S381.88,262.66,381.88,262.66Z" style="fill:#407BFF"></path><path d="M379.8,261.17l-.51-4.93a3.4,3.4,0,0,0,2.27-2.9,3.29,3.29,0,0,0-2.9,1.14s2-6.56-1-10.29a15,15,0,0,0-1.89,5.05s.54-8-5-13.32c0,0-1.47,8.89,2.57,13.73a8.28,8.28,0,0,0-6.82-1.11s2,5.21,6.78,5.28c0,0-4,.28-5.39,3.31a6.61,6.61,0,0,0,5.18.88c2.9-.76,5.25,4.65,5.25,4.65Z" style="fill:#407BFF"></path><polygon points="383.01 264.26 384.36 261.06 374.48 261.06 375.84 264.26 372.43 269.69 375.14 290.54 383.7 290.54 386.41 269.69 383.01 264.26" style="fill:#407BFF"></polygon><polygon points="383.01 264.26 384.36 261.06 374.48 261.06 375.84 264.26 372.43 269.69 375.14 290.54 383.7 290.54 386.41 269.69 383.01 264.26" style="fill:#fff;opacity:0.7000000000000001"></polygon></g></svg>
